<svg xmlns="http://www.w3.org/2000/svg" viewBox="0 0 500 500"><g id="freepik--street-light--inject-80"><g id="freepik--street-light--inject-80"><path d="M46.84,49.32A47.17,47.17,0,0,0,27.56,70.47V24.27a2,2,0,1,0-4,0V477.83a1,1,0,0,0,.6.84,3.2,3.2,0,0,0,2.86,0,1,1,0,0,0,.58-.84V84.35c1.25-12.88,9.09-24.86,21.12-31.87,14.47-8.43,31.66-8.23,47.16.56l1.8-3.18C81,40.41,62.47,40.21,46.84,49.32Z" style="fill:#e0e0e0"></path><path d="M95.4,64l9.07,6.32c7.24,5,18.91,5.76,26.07,1.63,3.31-1.91,4.93-4.29,4.93-6.67,0-.87-.06-4.24-.06-5.08,0-2.74-2.13-5.45-6.41-7.42L114.69,46.2c-8-3.68-18.5-4.35-23.44-1.49a5,5,0,0,0-2.72,4.44c0,.87,0,4.22,0,5C88.49,57.2,90.87,60.86,95.4,64Z" style="fill:#e0e0e0"></path><path d="M91.25,44.71C86.3,47.56,88.16,54,95.4,59l9.07,6.31c7.24,5,18.91,5.77,26.07,1.63S137,56.46,129,52.78L114.7,46.2C106.69,42.52,96.19,41.85,91.25,44.71Z" style="fill:#f0f0f0"></path><path d="M90.65,49.06a3,3,0,0,1,1.67-2.48,15.71,15.71,0,0,1,7.44-1.48,35.4,35.4,0,0,1,14,3.07l14.31,6.59c3.24,1.48,5.13,3.44,5.22,5.35.09,1.69-1.28,3.46-3.85,4.94a20.59,20.59,0,0,1-10.11,2.39,24.43,24.43,0,0,1-13.63-3.92l-9.07-6.33C92.91,54.61,90.56,51.41,90.65,49.06Z" style="fill:#fafafa"></path></g></g><g id="freepik--Wires--inject-80"><path d="M389.87,477.32a.57.57,0,0,1-.28-.08L25.65,267.14a.56.56,0,0,1,.56-1l363.94,210.1a.57.57,0,0,1,.2.76A.55.55,0,0,1,389.87,477.32Z" style="fill:#455a64"></path><path d="M476.62,393.63a.53.53,0,0,1-.27-.08L25.65,133.36a.56.56,0,0,1,.56-1L476.9,392.59a.56.56,0,0,1-.28,1Z" style="fill:#455a64"></path></g><g id="freepik--Clouds--inject-80"><path id="freepik--Cloud--inject-80" d="M356.19,101.1a15.92,15.92,0,0,0-5.27-1c-1.71-.13-2.25-.47-2.58-.84a12.58,12.58,0,0,0-15.1-4.47c-1-4.08-5.95-7.63-11.4-6.43.19-5.31-6.59-11-12.68-12.32-5.84-1.24-10.94-.72-14.27,3.12-3.57-7-17.56-8.93-25.13-5.24-4.35,2.12-8,4.29-9.85,8.28a16.77,16.77,0,0,0-1.64,7.93c-2.95-2.6-8.85-3.3-12.79-1.78-4.25,1.65-4.57,4.85-4.78,8.11a14.78,14.78,0,0,0-7.74-.14c-2.67.79-4.21,2.89-3.85,4.59-2.11-.12-7.16,1.59-6.58,3.83.65,2.51,6.41,2.25,8.56,2.17a39.72,39.72,0,0,0,6-.94,9.23,9.23,0,0,0,3.13.59c3.67,0,5.22-1.6,5.81-3,1.79,3.77,8.16,6.64,12.67,7.79,8.48,2.18,20.48.85,25.7-5.49A9.47,9.47,0,0,0,287,109a14.65,14.65,0,0,0,7.84,3.18c3.49.33,12.84.77,15.47-4.77,1.86,3.69,10.19,5.36,16.51,4.47a26.16,26.16,0,0,0,7.09-2.14,43.83,43.83,0,0,0,4.07-2.45c1.25-.74,1.81-.74,3.48-.23,4.34,1.3,9.38,1.84,13.81,0C358.77,105.57,359.51,102.61,356.19,101.1Z" style="fill:#f0f0f0"></path><path id="freepik--cloud--inject-80" d="M464.72,164.42a12.68,12.68,0,0,0-4.34-.8c-1.41-.11-1.85-.39-2.12-.7a10.38,10.38,0,0,0-12.45-3.68c-.83-3.36-4.9-6.29-9.39-5.3.15-4.38-5.43-9.08-10.45-10.15-4.82-1-9-.59-11.76,2.57-2.94-5.74-14.47-7.36-20.71-4.32-3.58,1.75-6.63,3.54-8.11,6.83A13.61,13.61,0,0,0,384,155.4c-2.43-2.14-7.3-2.72-10.55-1.46-3.5,1.35-3.77,4-3.94,6.67a12.26,12.26,0,0,0-6.37-.11c-2.21.65-3.48,2.38-3.17,3.78-1.75-.09-5.91,1.32-5.43,3.16.54,2.07,5.28,1.86,7.06,1.79a32.61,32.61,0,0,0,5-.78,7.54,7.54,0,0,0,2.58.49c3,0,4.31-1.31,4.79-2.44,1.48,3.11,6.73,5.47,10.44,6.42,7,1.79,16.88.7,21.18-4.52a7.79,7.79,0,0,0,2.08,2.53,12.1,12.1,0,0,0,6.47,2.63c2.87.26,10.57.63,12.74-3.93,1.54,3,8.4,4.41,13.61,3.67a21.16,21.16,0,0,0,5.84-1.76,36,36,0,0,0,3.36-2c1-.62,1.49-.61,2.86-.2,3.58,1.08,7.73,1.52,11.39,0C466.85,168.1,467.46,165.66,464.72,164.42Z" style="fill:#f5f5f5"></path></g><g id="freepik--Sun--inject-80"><circle id="freepik--sun--inject-80" cx="408.47" cy="88.07" r="18.46" style="fill:#25FFEB"></circle></g><g id="freepik--bird-5--inject-80"><g id="freepik--Bird--inject-80"><path d="M288.82,397.46l-1-8.16a.83.83,0,0,0-1.65.21l1,8.15a2.82,2.82,0,0,1-.34,1.75l-6.61,10.23a5.23,5.23,0,0,0-2.62.55,4.24,4.24,0,0,0-2.26,3.15.6.6,0,0,0,.47.68h.11a.59.59,0,0,0,.57-.48,3.08,3.08,0,0,1,1.64-2.33,3.79,3.79,0,0,1,.87-.31,4,4,0,0,0-.49.51,5.54,5.54,0,0,0-1.16,4.16.57.57,0,0,0,.57.49H278a.59.59,0,0,0,.49-.67,4.39,4.39,0,0,1,.91-3.26,4.49,4.49,0,0,1,.43-.44,7,7,0,0,0,.52,4.46.61.61,0,0,0,.49.27.55.55,0,0,0,.32-.1.58.58,0,0,0,.17-.8,6,6,0,0,1-.35-3.69,1.44,1.44,0,0,1,.5-.81,1.19,1.19,0,0,1,.8.28.57.57,0,0,1,.2.49.59.59,0,0,0,.54.62h0a.58.58,0,0,0,.58-.54,1.71,1.71,0,0,0-.57-1.42,2.21,2.21,0,0,0-1.07-.53l6.23-9.65A4.49,4.49,0,0,0,288.82,397.46Z" style="fill:#f0997a"></path><path d="M267.23,386l-1-8.15a.83.83,0,1,0-1.64.21l1,8.15a2.92,2.92,0,0,1-.35,1.75l-6.61,10.23a5.23,5.23,0,0,0-2.62.55,4.23,4.23,0,0,0-2.25,3.15.57.57,0,0,0,.47.67h.1a.57.57,0,0,0,.57-.48,3.07,3.07,0,0,1,1.65-2.32,3.59,3.59,0,0,1,.86-.32,4.74,4.74,0,0,0-.49.51,5.57,5.57,0,0,0-1.16,4.17.59.59,0,0,0,.58.49h.08a.57.57,0,0,0,.49-.66,4.44,4.44,0,0,1,.92-3.26,3.61,3.61,0,0,1,.42-.45,7,7,0,0,0,.53,4.47.58.58,0,0,0,.49.26.61.61,0,0,0,.31-.09.57.57,0,0,0,.17-.8,6,6,0,0,1-.34-3.7,1.43,1.43,0,0,1,.49-.8,1.16,1.16,0,0,1,.81.28.55.55,0,0,1,.19.48.58.58,0,0,0,.54.62h0a.59.59,0,0,0,.58-.54,1.76,1.76,0,0,0-.56-1.43,2.34,2.34,0,0,0-1.08-.53l6.23-9.64A4.51,4.51,0,0,0,267.23,386Z" style="fill:#f0997a"></path><path d="M282.8,392.06a4.84,4.84,0,0,0,2.65,2.07c.48.1,1.12-.06,1.16-.54.37.62,1.43,1.86,2.21,1.25a1.85,1.85,0,0,0,.6-1.4,1,1,0,0,0,1.25.67,1.83,1.83,0,0,0,1.13-1.05,8.85,8.85,0,0,0,.45-1.52,16.83,16.83,0,0,1,3.07-5.49c-3-1.21-6.75-1-9.87-.78a27.86,27.86,0,0,0-4.37.51c-1.3.28-2.7.1-4,.37a25.13,25.13,0,0,1,5.19,5.16Z" style="fill:#37474f"></path><path d="M262.6,387.08c0,.14,0,.28,0,.42,0,.51.1,1.11.55,1.33s1-.12,1.42-.45a3.7,3.7,0,0,0,.38,1.43,1.32,1.32,0,0,0,1.21.73c.7-.07,1.15-1.07,1.54-1.57.12.48.34,1,.83,1.1s.7-.28.94-.59c.92-1.22,1.58-2.7,2.85-3.56.31-.21.7-.45.7-.83a1,1,0,0,0-.27-.56,10.93,10.93,0,0,0-2.92-2.12,25.83,25.83,0,0,0-3.59-1.84,17.91,17.91,0,0,0-4.72-1.5.49.49,0,0,0-.34.05c-.16.12-.11.37-.05.55A30.21,30.21,0,0,1,262.6,387.08Z" style="fill:#263238"></path><path d="M295.78,349.07c-6.85-2.27-14.56-3.43-21.87-9.16S263.72,329,257.7,328s-10.23.38-15.52,3.89c-3.4,2.25-5.07,5.66-3.89,8.16.91,1.94,5.77,9.43,6.31,9.74s3.19.92,4.08,3.84-.26,11.25,4.18,18.58,10.31,10.77,20.92,13.88a41.43,41.43,0,0,0,27.09-1.2c7.29-2.77,15.57-10,15.57-10s5,.61,10.21,1.07,7.45.15,8.63-.78c13.21,1.42,17.47.68,19-1s-3.26-3.61-3.26-3.61,7.72.26,14.26.23,10.78-3.5-3.37-5.84-36.27-5.6-36.27-5.6Z" style="fill:#455a64"></path><path d="M290.14,347.49c-9.61-2.5-20.59,5.57-17.88,16.72C275.14,376,284.42,378.7,291.1,380s16.08,0,14.57-2c13-.9,14.44-2.77,15.76-4.56,12-1.68,13.11-5.62,10.11-6.68,9.88-1.63,13.83-4.8,6.22-5.6,10.32-1.76,15.84-7.2,7.66-6.82-11,.52-24.28.78-37-2C297.42,349.81,296.84,349.24,290.14,347.49Z" style="fill:#37474f"></path><path d="M336,360.91a126.06,126.06,0,0,1-16.94-.37,136.39,136.39,0,0,1-19.3-2.9,70.61,70.61,0,0,1-9.35-2.76s-.07.08,0,.1a77.11,77.11,0,0,0,17.7,4.59,141.25,141.25,0,0,0,19.26,1.75A60.94,60.94,0,0,0,336,361S336.06,360.91,336,360.91Zm-28.19,5.31a143.51,143.51,0,0,1-21.2-3.78,87.16,87.16,0,0,1-9.58-3s-.06.08,0,.1a93.08,93.08,0,0,0,18.47,5.22A138,138,0,0,0,318,367.23a73.57,73.57,0,0,0,12-.58s0,0,0,0A122,122,0,0,1,307.85,366.22Zm-1.69,6.39a126.68,126.68,0,0,1-15.86-2.26,48.29,48.29,0,0,1-6.85-1.89s-.06.08,0,.1c4.31,1.83,9.08,2.64,13.69,3.34a136,136,0,0,0,16.12,1.48,48.11,48.11,0,0,0,7.1-.23s0,0,0,0A119.93,119.93,0,0,1,306.16,372.61Zm-12.49,3.87a50.76,50.76,0,0,1-8.76-2.09,34,34,0,0,1-4-1.65s-.06.07,0,.09a30.32,30.32,0,0,0,7.52,2.92,66,66,0,0,0,9.67,1.65,56.7,56.7,0,0,0,6.51.37s0,0,0,0C301,377.27,297.29,377.06,293.67,376.48Z" style="fill:#263238"></path><path d="M272.48,354.42c-1.82,4.75-2.57,9.66,1.77,16.94,1.78,3,5.89,7.53,9.31,7.77.9.06,1-1.53.87-2.42a5.9,5.9,0,0,0-1-2.45,2,2,0,0,0,2.71-.31,3.19,3.19,0,0,0,.49-2.88,9,9,0,0,0-1.43-2.67A2.26,2.26,0,0,0,288,366a7.49,7.49,0,0,0-1.74-3.45,2,2,0,0,0,2.65-.43,4.27,4.27,0,0,0,.75-2.82,11.4,11.4,0,0,0-1.1-4.63c.58.74,1.9.32,2.3-.53a3.66,3.66,0,0,0-.13-2.75,9.3,9.3,0,0,0-2.71-4.2C283.9,343.77,274.83,348.28,272.48,354.42Z" style="fill:#263238"></path><path d="M231.35,351.12c1.46.44,4.68.37,9,.13s5.87-.12,7-1.81a11,11,0,0,0,1.38-5.36,27.29,27.29,0,0,0-8.86,1.47A25.48,25.48,0,0,0,231.35,351.12Z" style="fill:#f0997a"></path><path d="M239.13,339.71c-1.54.55-7.76,4.26-10,7.32s-1,8,.34,9.61c.56.84-.45-1.21,2.32-4.07s5.77-4.25,9.5-5.74,9.75-3.54,10.55-3.9c1.38-.62.64-1.74-2.06-1.08s-5.26,1.14-6.69-.2S241,339,239.13,339.71Z" style="fill:#ffbda7"></path><path d="M250.48,337.91c-.06-.25.1-.43.16-.65s.06-.49.11-.73a1.88,1.88,0,0,1,2.51-1.28,2,2,0,0,1,.77.5c.2.21.28.5.48.72s.23.19.27.33a.56.56,0,0,1-.09.41,6,6,0,0,0-.24.67,1.77,1.77,0,0,1-1.32,1.22,2.25,2.25,0,0,1-2-.5,3,3,0,0,0-.47-.47.38.38,0,0,1-.16-.12A.31.31,0,0,1,250.48,337.91Z" style="fill:#25FFEB"></path><circle cx="252.74" cy="337.06" r="1.01" style="fill:#37474f"></circle><path d="M253.64,336.69a.25.25,0,1,1-.24-.24A.25.25,0,0,1,253.64,336.69Z" style="fill:#fff"></path></g></g><g id="freepik--bird-4--inject-80"><g id="freepik--bird--inject-80"><path d="M121.61,319.8l-.13,0a.42.42,0,0,1-.27-.52l3.37-10.93a1.53,1.53,0,0,0-.1-1.15l-1.74-3.34a.42.42,0,1,1,.74-.38l1.73,3.34a2.3,2.3,0,0,1,.16,1.78L122,319.51A.42.42,0,0,1,121.61,319.8Z" style="fill:#37474f"></path><path d="M117.26,322.21h-.07a.42.42,0,0,1-.34-.49,3.34,3.34,0,0,1,1.79-2.5,3.87,3.87,0,0,1,3.14-.21.41.41,0,0,1-.35.75,3.1,3.1,0,0,0-2.41.2,2.51,2.51,0,0,0-1.35,1.91A.42.42,0,0,1,117.26,322.21Z" style="fill:#37474f"></path><path d="M118.88,323.86a.41.41,0,0,1-.41-.35,4.43,4.43,0,0,1,.92-3.32,3.13,3.13,0,0,1,2.19-1.22.42.42,0,0,1,.44.39.41.41,0,0,1-.39.44,2.27,2.27,0,0,0-1.59.91,3.61,3.61,0,0,0-.75,2.68.42.42,0,0,1-.35.47Z" style="fill:#37474f"></path><path d="M121.24,324.15a.43.43,0,0,1-.35-.19,5.56,5.56,0,0,1-.38-3.7,1.82,1.82,0,0,1,.92-1.25.42.42,0,0,1,.55.19.42.42,0,0,1-.19.56,1.14,1.14,0,0,0-.49.72,5,5,0,0,0,.29,3,.42.42,0,0,1-.12.57A.39.39,0,0,1,121.24,324.15Z" style="fill:#37474f"></path><path d="M123,320.92h0a.4.4,0,0,1-.38-.44.55.55,0,0,0-.18-.44,1.06,1.06,0,0,0-.77-.24.41.41,0,0,1-.47-.34.42.42,0,0,1,.35-.48,1.83,1.83,0,0,1,1.46.46,1.35,1.35,0,0,1,.44,1.1A.42.42,0,0,1,123,320.92Z" style="fill:#37474f"></path><path d="M112.23,314.38l-.13,0a.41.41,0,0,1-.27-.52l3.37-10.93a1.49,1.49,0,0,0-.11-1.15l-1.73-3.34a.4.4,0,0,1,.18-.56.4.4,0,0,1,.55.17l1.74,3.35a2.32,2.32,0,0,1,.16,1.77l-3.37,10.93A.41.41,0,0,1,112.23,314.38Z" style="fill:#37474f"></path><path d="M107.88,316.79h-.08a.41.41,0,0,1-.33-.48,3.34,3.34,0,0,1,1.79-2.5,3.87,3.87,0,0,1,3.14-.21.41.41,0,0,1,.2.55.42.42,0,0,1-.55.2,3.13,3.13,0,0,0-2.41.19,2.53,2.53,0,0,0-1.35,1.92A.43.43,0,0,1,107.88,316.79Z" style="fill:#37474f"></path><path d="M109.5,318.44a.42.42,0,0,1-.41-.35,4.41,4.41,0,0,1,.92-3.32,3.1,3.1,0,0,1,2.19-1.22.42.42,0,0,1,.44.38.43.43,0,0,1-.39.45,2.24,2.24,0,0,0-1.59.91,3.58,3.58,0,0,0-.75,2.67.43.43,0,0,1-.35.48Z" style="fill:#37474f"></path><path d="M111.86,318.73a.43.43,0,0,1-.35-.19,5.56,5.56,0,0,1-.39-3.7,1.88,1.88,0,0,1,.92-1.25.42.42,0,0,1,.56.19.41.41,0,0,1-.19.55,1.16,1.16,0,0,0-.49.73,5,5,0,0,0,.29,3,.42.42,0,0,1-.12.57A.48.48,0,0,1,111.86,318.73Z" style="fill:#37474f"></path><path d="M113.65,315.49h0a.41.41,0,0,1-.38-.44.54.54,0,0,0-.18-.44,1,1,0,0,0-.77-.24.42.42,0,0,1-.48-.35.42.42,0,0,1,.35-.47,1.84,1.84,0,0,1,1.47.45,1.34,1.34,0,0,1,.43,1.11A.4.4,0,0,1,113.65,315.49Z" style="fill:#37474f"></path><path d="M151.77,270.9c-8.33.42-16.82-.07-24.12-2.32s-13.4-1.63-14.47-.07c0,0,4,4.93,15,5.41A64.62,64.62,0,0,0,151.77,270.9Z" style="fill:#25FFEB"></path><path d="M151.77,270.9c-8.33.42-16.82-.07-24.12-2.32s-13.4-1.63-14.47-.07c0,0,4,4.93,15,5.41A64.62,64.62,0,0,0,151.77,270.9Z" style="opacity:0.1"></path><path d="M94.26,283.77c1.08,6,2.8,11.54,9.15,16.33,7.14,5.4,15.18,8.16,30.83,6.16s26-13,33.2-20.06,15.9-23.33,15.91-25.05c0-2.8-7.06,4.38-7.06,4.38a53.84,53.84,0,0,0,5-7.3c1.55-3.07,1.23-5-.19-3.77a101.85,101.85,0,0,1-11.67,8.91c-9.72,6.27-16.1,7.93-27,8.6s-22.31-.5-30.36-3.89Z" style="fill:#25FFEB"></path><path d="M94.26,283.77c1.08,6,2.8,11.54,9.15,16.33,7.14,5.4,15.18,8.16,30.83,6.16s26-13,33.2-20.06,15.9-23.33,15.91-25.05c0-2.8-7.06,4.38-7.06,4.38a53.84,53.84,0,0,0,5-7.3c1.55-3.07,1.23-5-.19-3.77a101.85,101.85,0,0,1-11.67,8.91c-9.72,6.27-16.1,7.93-27,8.6s-22.31-.5-30.36-3.89Z" style="fill:#fff;opacity:0.2"></path><path d="M87.45,269.58c-.78-1.19-.31-5.13,2.48-8.25s8.23-6.8,7.92-9.79,2.34,0,1.93,2.52c3.47-3.2,3.63-9.45,4.81-9.11s3.57,6.12,1.58,11.82c1.7-2,2.29-5,3-4.25s.69,5.14.42,8.2-.55,5.49,2.51,7.36.54,4.73-.34,4.56c1.29,1.26,1,5.68-2.58,4.79.94,1.63.2,6.49-3.94,4.88-.55,2.53-3.74,4.3-6.19,1.1-1,3-4.45,2.86-5.1-.75s-.47-5.57-2.57-7.13S87.45,269.58,87.45,269.58Z" style="fill:#25FFEB"></path><path d="M87.45,269.58c-.78-1.19-.31-5.13,2.48-8.25s8.23-6.8,7.92-9.79,2.34,0,1.93,2.52c3.47-3.2,3.63-9.45,4.81-9.11s3.57,6.12,1.58,11.82c1.7-2,2.29-5,3-4.25s.69,5.14.42,8.2-.55,5.49,2.51,7.36.54,4.73-.34,4.56c1.29,1.26,1,5.68-2.58,4.79.94,1.63.2,6.49-3.94,4.88-.55,2.53-3.74,4.3-6.19,1.1-1,3-4.45,2.86-5.1-.75s-.47-5.57-2.57-7.13S87.45,269.58,87.45,269.58Z" style="fill:#fff;opacity:0.4"></path><path d="M121.44,278.21c2.74,1.55,6.23,1.38,14.2-.4s13.63-3.71,15.43-1.27c7.44-2.62,9.45-2.18,11.09-.51,5.5-1.93,7.42-1.1,8.45-.16,4.84-2.8,7.46-6,8.49-4.86s-6.76,18.37-20.59,24.56-29.17,4.62-36.5,1.09-8.33-9.57-7.31-17.67Z" style="fill:#25FFEB"></path><path d="M114.7,279c4.59,0,6.42,4.47,6.35,8.32,3.8-3.93,6.56.08,7.13,3.3,3.65-2.11,5.34.74,5.9,3.37,2.84-1.4,6.61,6.07,4.72,6.57s-10.5.93-18-3.28S112.66,283.81,114.7,279Z" style="fill:#25FFEB"></path><path d="M114.7,279c4.59,0,6.42,4.47,6.35,8.32,3.8-3.93,6.56.08,7.13,3.3,3.65-2.11,5.34.74,5.9,3.37,2.84-1.4,6.61,6.07,4.72,6.57s-10.5.93-18-3.28S112.66,283.81,114.7,279Z" style="opacity:0.1"></path><path d="M144.3,279.81c.88-.27,1.76-.56,2.63-.86s1.74-.71,2.62-1.08c0,0,0-.14,0-.12-1,.31-2,.58-3,.89s-2,.61-3,.9q-3,.87-6.11,1.54c-4.14.91-8.33,1.43-12.52,2-.05,0-.07.15,0,.15a58,58,0,0,0,9.83-1.1A87.39,87.39,0,0,0,144.3,279.81Zm10.15,1.35c1-.52,2.07-1.06,3.09-1.63s2.16-1.31,3.22-2c0,0,.05-.15,0-.12-.91.48-1.84.91-2.75,1.39s-1.88,1-2.83,1.45c-1.86.93-3.75,1.8-5.68,2.59a66,66,0,0,1-11.06,3.56c-1.93.43-3.89.81-5.86,1.07,0,0-.07.14,0,.14a39.79,39.79,0,0,0,10.59-1.92A75.07,75.07,0,0,0,154.45,281.16Zm15.33-3.74c-.69.58-1.43,1.09-2.14,1.65s-1.54,1.2-2.33,1.77c-1.66,1.2-3.36,2.35-5.12,3.41a66.79,66.79,0,0,1-13.09,6.08c-2.81.95-5.7,1.76-8.58,2.46-.06,0-.07.15,0,.14a56.47,56.47,0,0,0,14.81-4.49,61.72,61.72,0,0,0,11.46-6.64c.9-.66,1.78-1.35,2.64-2.06s1.6-1.47,2.39-2.22C169.86,277.48,169.84,277.37,169.78,277.42Z" style="opacity:0.1"></path><path d="M97,269.77a.61.61,0,0,1,0-.19c0-.11.08-.21.12-.32s.08-.43.14-.64a1.52,1.52,0,0,1,.23-.48,1.73,1.73,0,0,1,.89-.59,2.11,2.11,0,0,1,1.06,0,2,2,0,0,1,.79.39,1.16,1.16,0,0,0,.27.18.44.44,0,0,1,.15.08.37.37,0,0,1,.12.43c0,.1-.13.17-.17.27a1.89,1.89,0,0,0-.08.4,1.42,1.42,0,0,1-.88,1.12,2.23,2.23,0,0,1-.81.14,2.28,2.28,0,0,1-.81-.19c-.25-.11-.49-.26-.75-.36a.54.54,0,0,1-.2-.1A.27.27,0,0,1,97,269.77Z" style="fill:#263238"></path><path d="M85,276.87c1.23.41,2.64-.21,3.94-.47s2.91-.72,3.6-.92a1.4,1.4,0,0,0,.65-.39,2.45,2.45,0,0,0,.52-2.45,12.59,12.59,0,0,0-4.63,1.09A8.12,8.12,0,0,0,85,276.87Z" style="fill:#263238"></path><path d="M90.14,268.88a1.43,1.43,0,0,0-1.15-.49c-.49.06-.86.52-1.21.85-1.37,1.27-3.84,5.51-4,7.1s2.65,0,5.06-1.32,4.07-1.9,4.9-2.38c.66-.38-.22-1.22-.57-1.41a10.24,10.24,0,0,1-1.84-.93,9.81,9.81,0,0,1-1-1.28Z" style="fill:#455a64"></path></g></g><g id="freepik--bird-3--inject-80"><g id="freepik--bird--inject-80"><path d="M398.34,346.51l-.12,0a.43.43,0,0,1-.28-.52l3-9.67a1.28,1.28,0,0,0-.09-1l-1.54-3A.42.42,0,0,1,400,332l1.53,3a2.14,2.14,0,0,1,.15,1.61l-3,9.67A.43.43,0,0,1,398.34,346.51Z" style="fill:#37474f"></path><path d="M394.49,348.64h-.07a.42.42,0,0,1-.34-.48,3.05,3.05,0,0,1,1.62-2.26,3.5,3.5,0,0,1,2.82-.18.42.42,0,0,1,.2.55.43.43,0,0,1-.56.2,2.66,2.66,0,0,0-2.08.17,2.19,2.19,0,0,0-1.18,1.66A.41.41,0,0,1,394.49,348.64Z" style="fill:#37474f"></path><path d="M395.93,350.1a.41.41,0,0,1-.41-.35,3.92,3.92,0,0,1,.82-3,2.79,2.79,0,0,1,2-1.1.42.42,0,0,1,.06.83,1.93,1.93,0,0,0-1.38.79,3.15,3.15,0,0,0-.65,2.33.42.42,0,0,1-.35.47Z" style="fill:#37474f"></path><path d="M398,350.36a.42.42,0,0,1-.35-.19,5,5,0,0,1-.35-3.32,1.72,1.72,0,0,1,.84-1.13.42.42,0,0,1,.36.75.93.93,0,0,0-.4.61,4.31,4.31,0,0,0,.25,2.64.41.41,0,0,1-.13.57A.44.44,0,0,1,398,350.36Z" style="fill:#37474f"></path><path d="M399.6,347.49h0a.4.4,0,0,1-.38-.44.43.43,0,0,0-.14-.35.9.9,0,0,0-.65-.2.4.4,0,0,1-.47-.35.42.42,0,0,1,.35-.47,1.66,1.66,0,0,1,1.33.41,1.27,1.27,0,0,1,.41,1A.42.42,0,0,1,399.6,347.49Z" style="fill:#37474f"></path><path d="M390,341.71l-.12,0a.43.43,0,0,1-.28-.52l3-9.67a1.28,1.28,0,0,0-.08-1l-1.54-3a.4.4,0,0,1,.18-.56.41.41,0,0,1,.56.17l1.53,3a2.14,2.14,0,0,1,.15,1.61l-3,9.67A.43.43,0,0,1,390,341.71Z" style="fill:#37474f"></path><path d="M386.19,343.84h-.07a.42.42,0,0,1-.34-.48,3,3,0,0,1,1.61-2.26,3.52,3.52,0,0,1,2.83-.18.41.41,0,0,1,.19.55.41.41,0,0,1-.55.2,2.66,2.66,0,0,0-2.08.17,2.16,2.16,0,0,0-1.18,1.66A.42.42,0,0,1,386.19,343.84Z" style="fill:#37474f"></path><path d="M387.62,345.3a.42.42,0,0,1-.41-.35,4,4,0,0,1,.83-3,2.79,2.79,0,0,1,2-1.1.41.41,0,0,1,.44.38.42.42,0,0,1-.38.45,1.93,1.93,0,0,0-1.38.79,3.1,3.1,0,0,0-.65,2.33.42.42,0,0,1-.35.47Z" style="fill:#37474f"></path><path d="M389.72,345.56a.42.42,0,0,1-.35-.19,5,5,0,0,1-.35-3.31,1.66,1.66,0,0,1,.84-1.14.42.42,0,0,1,.36.75.93.93,0,0,0-.4.61,4.25,4.25,0,0,0,.24,2.64.41.41,0,0,1-.12.57A.47.47,0,0,1,389.72,345.56Z" style="fill:#37474f"></path><path d="M391.3,342.69h0a.4.4,0,0,1-.38-.44.43.43,0,0,0-.14-.35.94.94,0,0,0-.65-.2.4.4,0,0,1-.47-.35.41.41,0,0,1,.35-.47,1.68,1.68,0,0,1,1.33.41,1.23,1.23,0,0,1,.4,1A.4.4,0,0,1,391.3,342.69Z" style="fill:#37474f"></path><path d="M429.45,309.26c-.73-1.79-5.29-5.51-16.12-6.2a10.54,10.54,0,0,0,6.53,5.79A17.52,17.52,0,0,0,429.45,309.26Z" style="fill:#455a64"></path><path d="M427.13,306.86c.64.46,4.64-1,9.1-2.65s6.27-2.46,7-2.37,2.36,1.91,3.27,3a10.37,10.37,0,0,1,2.71-.33c.79.15,4.41,4.16,4.47,5,0,.43-2.54.81-2.54.81a15.24,15.24,0,0,1,3,4.24c.31.84-7.78.77-12.69.59s-9.91-.46-9.91-.46C428.63,312.62,426.84,310.14,427.13,306.86Z" style="fill:#455a64"></path><path d="M446.5,304.84a159.33,159.33,0,0,1-16,3.82,159.33,159.33,0,0,1,16-3.82Z" style="fill:#37474f"></path><path d="M451.14,310.29q-9.13,1-18.33,1.15,9.13-1,18.33-1.15Z" style="fill:#37474f"></path><path d="M393.54,300.88c4.23-1.49,14.89-1,19.79,2.18l-19.79,2.06Z" style="fill:#455a64"></path><path d="M416.32,325.25a47.46,47.46,0,0,0-7.53,4.06c-2.57,1.77-12.82,6.68-22,3.4-7.5-2.7-10.29-6.64-12.43-12.26a21.71,21.71,0,0,0-2.53-5.22,7.94,7.94,0,0,0-2-1.9l-1.06-1.43L366,308.12a.85.85,0,0,1-.17-.16c-.91-1.06-1.21-4.64,1.49-8.85s8.15-6.07,13.39-5.5l.65.09a18.57,18.57,0,0,1,2.56.57l.68.22a16.15,16.15,0,0,1,4,2.2c3.23,2.35,5.44,5.31,7.88,5.88A43.34,43.34,0,0,1,416.32,325.25Z" style="fill:#e0e0e0"></path><path d="M416.32,325.25a47.46,47.46,0,0,0-7.53,4.06c-2.57,1.77-12.82,6.68-22,3.4-7.5-2.7-10.29-6.64-12.43-12.26a21.71,21.71,0,0,0-2.53-5.22,7.94,7.94,0,0,0-2-1.9l-1.06-1.43L366,308.12a.85.85,0,0,1-.17-.16c-.91-1.06-1.21-4.64,1.49-8.85s8.15-6.07,13.39-5.5l.65.09a18.57,18.57,0,0,1,2.56.57l.68.22a16.15,16.15,0,0,1,4,2.2c3.23,2.35,5.44,5.31,7.88,5.88A43.34,43.34,0,0,1,416.32,325.25Z" style="opacity:0.25"></path><path d="M383.9,294.27a15.69,15.69,0,0,1,4.72,2.42,18.38,18.38,0,0,1-5.72,9.18c-4.57,3.66-8.69,4.34-11.47,3.86,0,0-1.9,1.17.46,1.8l-3.12.37L366,308.12c-1-.81-1.54-4.55,1.32-9C370.66,293.87,377.78,292.44,383.9,294.27Z" style="fill:#37474f"></path><path d="M391.53,299.11c-.59-.53-1.21-1.08-1.87-1.62C390.32,298,390.94,298.57,391.53,299.11Z" style="fill:#37474f"></path><path d="M396.49,302.58a10.62,10.62,0,0,1-4.1-2.69h0l-4.05,7.46c-1.56,5.92-.89,12.79,4.05,16.43l23.93,1.47A43.29,43.29,0,0,0,396.49,302.58Z" style="fill:#37474f"></path><path d="M383.52,310.31l-11.63,1.22-3.12.37,1.06,1.44a7.76,7.76,0,0,1,2,1.89h0s.38-1,2.79-1.48A20.3,20.3,0,0,0,383.52,310.31Z" style="fill:#37474f"></path><path d="M382.9,305.87c-4.57,3.65-8.68,4.34-11.47,3.87,0,0-1.9,1.16.46,1.79s12.24.32,16.45-4.18c3.9-4.16,4.05-7.46,4.05-7.46h0a45.22,45.22,0,0,0-3.77-3.19A18.36,18.36,0,0,1,382.9,305.87Z" style="fill:#e0e0e0"></path><path d="M397.39,325.25c4.83,1.19,11.76,2.22,18.93,0s12.22-5.75,14.1-8.57,2.46-6-1.06-5.64c1.41-1.52-.82-3.4-4.94-3.05.62-1.06-2-2.12-4-1.88,1.45-.9-4-3.06-11.05-3.53a98.19,98.19,0,0,0-12.89,0S393.73,320.19,397.39,325.25Z" style="fill:#37474f"></path><path d="M398.57,325.53a4.3,4.3,0,0,0,.17-2.84c2.76.94,3.38-3.81,1.25-7.06,4.32-.88,1.13-6.38-.47-8.65l-3.55-.21c-.57,5.54-1.1,15,1.42,18.48Z" style="opacity:0.25"></path><path d="M363.18,315.76c1.23.42,2.63-.21,3.94-.47,1.47-.3,3.9-1,3.9-1a2.43,2.43,0,0,0,.87-2.76,12.87,12.87,0,0,0-4.63,1.09A8.12,8.12,0,0,0,363.18,315.76Z" style="fill:#263238"></path><path d="M368.85,307.26c-1.21-.7-2,0-2.88.87-1.37,1.27-3.84,5.51-4.05,7.1s2.66,0,5.07-1.32,4.06-1.89,4.9-2.38S370.54,308.23,368.85,307.26Z" style="fill:#455a64"></path><path d="M396.49,302.58c-6.73,1.79-8.76,8.83-8.31,13.92s5.17,8.69,7.72,9.14,2.09-2.85,1.49-4.2c3.15,1.65,4.2-2.69,1.05-6.73,2.85.74,3.58-1.65,2.23-5.34A30.84,30.84,0,0,0,396.49,302.58Z" style="fill:#455a64"></path><path d="M428.48,311.67c-3.4,1.53-6.34,3.83-9.67,5.49a29.18,29.18,0,0,1-9.79,2.65c-1,.12-2.1.21-3.15.26s-2.22,0-3.33.12c-.07,0-.1.17,0,.18a21.87,21.87,0,0,0,5.77-.05,39.36,39.36,0,0,0,5.39-.9,23.77,23.77,0,0,0,4.6-1.57,45,45,0,0,0,4.63-2.65,64.29,64.29,0,0,1,5.6-3.31c.08,0,.06-.26,0-.22Z" style="fill:#263238"></path><path d="M423.33,308.63c-2.56,1.05-4.77,2.74-7.32,3.82a31.87,31.87,0,0,1-9.09,2.13,39.73,39.73,0,0,1-5,.18s-.06.09,0,.09a24.82,24.82,0,0,0,9.08-.57,25.58,25.58,0,0,0,8-3.07c1.43-.86,2.86-1.73,4.34-2.53,0,0,0-.06,0-.05Z" style="fill:#263238"></path><path d="M401.3,305.63c2.39-.14,4.8-.2,7.2-.22s4.77.13,7.15.11c0,0,0-.07,0-.07a43.39,43.39,0,0,0-7.21-.35,60.81,60.81,0,0,0-7.14.43c-.05,0-.06.1,0,.1Z" style="fill:#263238"></path><path d="M419.36,306.61c-1.22.41-2.4.92-3.63,1.3a37.8,37.8,0,0,1-7.82,1.51c-2.07.2-4.12.08-6.18.11-.09,0-.1.18,0,.2a23.61,23.61,0,0,0,4.9.11,36.38,36.38,0,0,0,4.65-.54,34.61,34.61,0,0,0,6.42-1.93c.56-.22,1.11-.49,1.66-.72,0,0,0,0,0,0Z" style="fill:#263238"></path><path d="M429.44,317.9c-6.14,5.69-17.2,7.63-23.76,6.94s-7.91-2.08-7.91-2.08-.6,2.08-3,.58A13.26,13.26,0,0,1,389,309.78a16.39,16.39,0,0,0-.85,6.72c.45,5.09,5.17,8.69,7.72,9.14a1.53,1.53,0,0,0,1.49-.39h0c4.83,1.19,11.76,2.22,18.93,0C422.49,323.34,427.08,320.46,429.44,317.9Z" style="opacity:0.25"></path><path d="M374.25,306.32a.61.61,0,0,1,0-.19c0-.11.08-.21.12-.32s.07-.43.13-.64a1.54,1.54,0,0,1,.24-.48,1.8,1.8,0,0,1,.89-.59,2.11,2.11,0,0,1,1.06,0,2,2,0,0,1,.79.39,1,1,0,0,0,.27.18,1.09,1.09,0,0,1,.15.08.37.37,0,0,1,.12.43c0,.1-.13.17-.17.27a2.88,2.88,0,0,0-.09.4,1.42,1.42,0,0,1-.87,1.13,2.5,2.5,0,0,1-.81.13,2.28,2.28,0,0,1-.81-.19c-.25-.11-.49-.26-.75-.36a.42.42,0,0,1-.2-.1A.21.21,0,0,1,374.25,306.32Z" style="fill:#263238"></path></g></g><g id="freepik--bird-2--inject-80"><g id="freepik--bird--inject-80"><path d="M267.57,270.31l-.17,0a.59.59,0,0,1-.39-.73L271.19,256a1.84,1.84,0,0,0-.13-1.38l-2.15-4.14a.57.57,0,0,1,.25-.78.58.58,0,0,1,.78.24l2.15,4.15a2.94,2.94,0,0,1,.21,2.25l-4.18,13.54A.59.59,0,0,1,267.57,270.31Z" style="fill:#37474f"></path><path d="M262.18,273.3h-.1a.57.57,0,0,1-.47-.67,4.19,4.19,0,0,1,2.25-3.15,4.89,4.89,0,0,1,3.95-.27.59.59,0,0,1,.28.78.58.58,0,0,1-.77.28,3.72,3.72,0,0,0-2.92.24,3.07,3.07,0,0,0-1.65,2.32A.58.58,0,0,1,262.18,273.3Z" style="fill:#37474f"></path><path d="M264.19,275.35a.59.59,0,0,1-.58-.5,5.54,5.54,0,0,1,1.16-4.16,3.91,3.91,0,0,1,2.76-1.54.58.58,0,0,1,.08,1.16,2.75,2.75,0,0,0-1.93,1.11,4.41,4.41,0,0,0-.92,3.26.58.58,0,0,1-.49.66Z" style="fill:#37474f"></path><path d="M267.12,275.7a.57.57,0,0,1-.49-.27,6.9,6.9,0,0,1-.49-4.63,2.36,2.36,0,0,1,1.17-1.59.58.58,0,0,1,.78.27.57.57,0,0,1-.27.77,1.31,1.31,0,0,0-.56.86,6,6,0,0,0,.34,3.69.58.58,0,0,1-.17.81A.61.61,0,0,1,267.12,275.7Z" style="fill:#37474f"></path><path d="M269.33,271.69h0a.58.58,0,0,1-.54-.62.58.58,0,0,0-.19-.49,1.26,1.26,0,0,0-.91-.28.58.58,0,1,1-.17-1.14,2.35,2.35,0,0,1,1.87.57,1.75,1.75,0,0,1,.56,1.42A.58.58,0,0,1,269.33,271.69Z" style="fill:#37474f"></path><path d="M253.69,262.29a.47.47,0,0,1-.17,0,.59.59,0,0,1-.39-.73L257.31,248a1.77,1.77,0,0,0-.13-1.37L255,242.48a.58.58,0,0,1,.25-.78.57.57,0,0,1,.78.25l2.16,4.14a3,3,0,0,1,.2,2.25l-4.18,13.54A.57.57,0,0,1,253.69,262.29Z" style="fill:#37474f"></path><path d="M248.3,265.28h-.1a.57.57,0,0,1-.47-.67,4.21,4.21,0,0,1,2.26-3.15,4.89,4.89,0,0,1,3.95-.26.58.58,0,0,1-.5,1.05,3.72,3.72,0,0,0-2.92.24,3.09,3.09,0,0,0-1.65,2.32A.57.57,0,0,1,248.3,265.28Z" style="fill:#37474f"></path><path d="M250.31,267.33a.58.58,0,0,1-.57-.49,5.52,5.52,0,0,1,1.15-4.17,3.91,3.91,0,0,1,2.76-1.54.58.58,0,0,1,.08,1.16,2.75,2.75,0,0,0-1.93,1.11,4.44,4.44,0,0,0-.92,3.26.57.57,0,0,1-.48.66Z" style="fill:#37474f"></path><path d="M253.24,267.68a.58.58,0,0,1-.49-.26,6.93,6.93,0,0,1-.49-4.64,2.38,2.38,0,0,1,1.18-1.59.58.58,0,0,1,.77.27.58.58,0,0,1-.27.78,1.32,1.32,0,0,0-.56.85,6,6,0,0,0,.34,3.7.57.57,0,0,1-.17.8A.56.56,0,0,1,253.24,267.68Z" style="fill:#37474f"></path><path d="M255.46,263.68h-.05a.57.57,0,0,1-.53-.62.56.56,0,0,0-.2-.48,1.2,1.2,0,0,0-.91-.28.58.58,0,0,1-.17-1.15,2.33,2.33,0,0,1,1.87.58,1.74,1.74,0,0,1,.56,1.42A.58.58,0,0,1,255.46,263.68Z" style="fill:#37474f"></path><path d="M299.05,230s20.93-3.41,26.67-4.44,9.32-2,9.32-2-1.4-4.7-7.12-8.07c.38-.52.18-2.14-3.1-4.7-3.58-2.8-7-3.87-7.77-2.33-.17-.84-4-2.63-5.84-3.14S296.08,223,296.08,223Z" style="fill:#e0e0e0"></path><path d="M299.05,230s20.93-3.41,26.67-4.44,9.32-2,9.32-2-1.4-4.7-7.12-8.07c.38-.52.18-2.14-3.1-4.7-3.58-2.8-7-3.87-7.77-2.33-.17-.84-4-2.63-5.84-3.14S296.08,223,296.08,223Z" style="opacity:0.25"></path><path d="M327.92,215.5c.38-.52.18-2.14-3.1-4.7-3.58-2.8-7-3.87-7.77-2.33-.17-.84-4-2.63-5.84-3.14-.47-.13-1.68,1-3.23,2.65,2.93.44,6,2.11,6.15,3,3.46-.63,9.51,4.34,10.33,6.52,2,0,6.17,5.15,6.7,7,2.47-.54,3.88-.93,3.88-.93S333.64,218.87,327.92,215.5Z" style="fill:#263238"></path><path d="M299.05,230s20.93-3.41,26.67-4.44,9.32-2,9.32-2-1.4-4.7-7.12-8.07c-2.33,2.28-23.32,9.81-29.88,12.13Z" style="opacity:0.25"></path><path d="M297.13,225.48c3-2.55,17.13-14.67,19.92-17-.17-.84-4-2.63-5.84-3.14S296.08,223,296.08,223Z" style="opacity:0.25"></path><path d="M286.46,212.08c-10.08-4.27-24.8-5.4-30.33-3.32s-6.85,5.85-4.87,8.87S286.46,212.08,286.46,212.08Z" style="fill:#e0e0e0"></path><path d="M286.46,212.08c-10.08-4.27-24.8-5.4-30.33-3.32s-6.85,5.85-4.87,8.87S286.46,212.08,286.46,212.08Z" style="opacity:0.25"></path><path d="M253.43,213.71c-6-.51-8.59-4.05-11.09-7-2.7-3.2-5.65-9.09-10.85-10.59A12.82,12.82,0,0,0,218.78,199c-3.53,3.08-4.62,8.5-3,10.08l6.28,6.44a54.69,54.69,0,0,1,6.52,8.33c2.95,5.19,4.29,9.92,6.92,15.45a28.66,28.66,0,0,0,24.71,16.55c13.06.68,20.06-3.89,20.06-3.89A43.81,43.81,0,0,0,299.05,230c5.62-15.08-4-16.24-10.11-17.51s-12.76-1.17-20.27-.64S257.84,214.08,253.43,213.71Z" style="fill:#e0e0e0"></path><path d="M253.43,213.71c-6-.51-8.59-4.05-11.09-7-2.7-3.2-5.65-9.09-10.85-10.59A12.82,12.82,0,0,0,218.78,199c-3.53,3.08-4.62,8.5-3,10.08l6.28,6.44a54.69,54.69,0,0,1,6.52,8.33c2.95,5.19,4.29,9.92,6.92,15.45a28.66,28.66,0,0,0,24.71,16.55c13.06.68,20.06-3.89,20.06-3.89A43.81,43.81,0,0,0,299.05,230c5.62-15.08-4-16.24-10.11-17.51s-12.76-1.17-20.27-.64S257.84,214.08,253.43,213.71Z" style="opacity:0.15"></path><path d="M251.7,241.34C247.41,248,241.07,247,240.82,247a26.14,26.14,0,0,1-3.42-4.34c-.17-.26-.33-.52-.48-.79s-.32-.54-.47-.81c-.32-.57-.63-1.16-.91-1.77-2.63-5.53-4-10.26-6.93-15.44a36.45,36.45,0,0,0-3.13-4.46,10.34,10.34,0,0,0-4.81-3l-4.85-7.33c-1.66-1.58-.57-7,3-10.08a12.79,12.79,0,0,1,12.71-2.85c5.2,1.49,8.16,7.38,10.85,10.58,2.5,2.95,5,6.49,11.09,7l.65,0c.56,0,1.11,0,1.64,0C258.59,222,256.07,234.56,251.7,241.34Z" style="fill:#455a64"></path><path d="M251.7,241.34C247.41,248,241.07,247,240.82,247a26.14,26.14,0,0,1-3.42-4.34c-.17-.26-.33-.52-.48-.79s-.32-.54-.47-.81c1.4,1.26,8,2.07,12.94-5.11s5.31-20.82,4-22.23l.65,0h.64c.34,0,.67,0,1,0C258.59,222,256.07,234.56,251.7,241.34Z" style="fill:#25FFEB"></path><path d="M224.24,207.56l-.05-.06a.53.53,0,0,1,0-.28,4.54,4.54,0,0,1,.07-.75,1.76,1.76,0,0,1,.32-.66,1.55,1.55,0,0,1,1.06-.47,1.64,1.64,0,0,1,.87.15c.28.13.43.4.64.61s.38.41.26.71l-.1.21a1.18,1.18,0,0,0,0,.2,1.68,1.68,0,0,1-.22.64,1.41,1.41,0,0,1-1.29.61,1.44,1.44,0,0,1-1.1-.48,3.88,3.88,0,0,0-.26-.31A1.49,1.49,0,0,1,224.24,207.56Z" style="fill:#25FFEB"></path><circle cx="225.8" cy="206.93" r="0.83" style="fill:#37474f"></circle><path d="M226.63,206.42a.32.32,0,1,1-.64,0,.32.32,0,0,1,.64,0Z" style="fill:#fafafa"></path><path d="M292.4,244.16c6.33-4.16,10.76-13.46,13-19.12s2.85-8.55.77-8.12c4.3-8,4.32-10.95,2.34-10.18,3-8.46,4-10.69.54-8.67s-9.07,8.1-20.07,14.45S281.14,246.5,292.4,244.16Z" style="fill:#455a64"></path><path d="M292.4,244.16a19.36,19.36,0,0,0,2.77-2.25,4.51,4.51,0,0,0-1.34-1.6,3.93,3.93,0,0,0,0-5.57,6,6,0,0,0,2.19-4.39c.05-1.23-.57-2.71-1.79-2.81a5.12,5.12,0,0,0,1.87-3.06c.1-1.22-1-2.57-2.16-2.27a5.42,5.42,0,0,0,1.34-4,3,3,0,0,0-2.94-2.62,3.83,3.83,0,0,0,.18-3.88,3.44,3.44,0,0,0-.71-.9c-.91.57-1.85,1.14-2.85,1.72C277.94,218.87,281.14,246.5,292.4,244.16Z" style="fill:#263238"></path><path d="M276.09,217.61c3.14-1.49,10.83-6.26,12.85-5.09s.92,3.73,0,4.91c4.83,0,3.35,3.9.89,6.5,4.57-.48,3.07,2.93,1.12,4.88,4.12,0,2.41,5.53-.68,7.31,3.93-1.11,2.31,3.43-.19,5.5,5.05-.52,2.64,7.42-9.77,10.32C275,249.43,271.39,228.65,276.09,217.61Z" style="fill:#e0e0e0"></path><path d="M276.09,217.61c3.14-1.49,10.83-6.26,12.85-5.09s.92,3.73,0,4.91c4.83,0,3.35,3.9.89,6.5,4.57-.48,3.07,2.93,1.12,4.88,4.12,0,2.41,5.53-.68,7.31,3.93-1.11,2.31,3.43-.19,5.5,5.05-.52,2.64,7.42-9.77,10.32C275,249.43,271.39,228.65,276.09,217.61Z" style="opacity:0.25"></path><path d="M285.23,249.72c.7-1.72.38-4.05-1.28-4.88a8.2,8.2,0,0,0,2.29-3.77c.26-1.47-.6-3.24-2.08-3.39a7.45,7.45,0,0,0,3.06-4.91,4.47,4.47,0,0,0-.3-2.61,2.49,2.49,0,0,0-2.09-1.44,4.47,4.47,0,0,0,1.94-3.55,3,3,0,0,0-2.48-2.94,3.79,3.79,0,0,0,.23-4.86,5.67,5.67,0,0,0-3.94-2.11c-1.76.92-3.4,1.84-4.49,2.35-4.7,11-1.09,31.82,4.22,34.33a28.45,28.45,0,0,0,4.53-1.44A5.68,5.68,0,0,0,285.23,249.72Z" style="fill:#263238"></path><path d="M265,223.46c-5.54,4.44-11.93,14.4-4.47,23.25,5.52,6.56,15.57,6.93,19.76,5.23s4.34-5.5.46-5.23c5.32-3.91,3.49-8.46.29-7.61,4.91-4.95,4.77-9.65,1-8.72,3.29-4.34,1.74-7.68-.51-6.54,2.63-5.78-.8-7.8-5.5-6.23A33.09,33.09,0,0,0,265,223.46Z" style="fill:#e0e0e0"></path><path d="M265.7,224c-5.18,4.85-10.77,13.35-5.15,22.68,5.52,6.56,15.57,6.93,19.76,5.23s4.34-5.5.46-5.23c5.32-3.91,3.49-8.46.29-7.61,4.91-4.95,4.77-9.65,1-8.72,3.29-4.34,1.74-7.68-.51-6.54,2.63-5.78-.8-7.8-5.5-6.23A35.13,35.13,0,0,0,265.7,224Z" style="opacity:0.25"></path><path d="M213.19,218.44c1.83.05,5.49-1.35,7.48-2.05s2.74-1.86,2.63-3.69C221.43,211.81,214.21,215.74,213.19,218.44Z" style="fill:#37474f"></path><path d="M217.48,207.76c-.82.23-3.36,2.69-4.86,6.23a11.5,11.5,0,0,0-.92,5.74,41.7,41.7,0,0,1,5.62-4.33c4-2.37,6.64-2.61,6.89-3.38.39-1.21-1.62-1.38-3.15-2.84C220.1,208.27,218.66,207.43,217.48,207.76Z" style="fill:#455a64"></path><path d="M221.06,209.18c-1-.91-2.4-1.75-3.58-1.42-.61.18-2.21,1.62-3.61,3.83.87-.35,1.66-.55,2.35.44s2.88.07,4.46-.36,3-.6,3.53.35C224.6,210.81,222.59,210.64,221.06,209.18Z" style="fill:#fafafa"></path></g></g><g id="freepik--bird-1--inject-80"><g id="freepik--bird--inject-80"><path d="M132.94,193l-.12,0a.41.41,0,0,1-.27-.52l3-9.67a1.28,1.28,0,0,0-.09-1l-1.54-3a.42.42,0,0,1,.18-.56.4.4,0,0,1,.56.18l1.54,3a2.07,2.07,0,0,1,.14,1.6l-3,9.68A.42.42,0,0,1,132.94,193Z" style="fill:#37474f"></path><path d="M129.1,195.14H129a.42.42,0,0,1-.33-.48,3,3,0,0,1,1.61-2.25,3.47,3.47,0,0,1,2.82-.19.41.41,0,0,1-.35.75,2.68,2.68,0,0,0-2.09.17,2.23,2.23,0,0,0-1.18,1.66A.41.41,0,0,1,129.1,195.14Z" style="fill:#37474f"></path><path d="M130.53,196.61a.42.42,0,0,1-.41-.36,3.93,3.93,0,0,1,.83-3,2.79,2.79,0,0,1,2-1.1.42.42,0,0,1,.44.39.43.43,0,0,1-.39.44,2,2,0,0,0-1.38.79,3.15,3.15,0,0,0-.65,2.33.4.4,0,0,1-.35.47Z" style="fill:#37474f"></path><path d="M132.62,196.86a.43.43,0,0,1-.35-.19,5,5,0,0,1-.35-3.31,1.72,1.72,0,0,1,.84-1.14.42.42,0,0,1,.37.75,1,1,0,0,0-.41.61,4.31,4.31,0,0,0,.25,2.64.42.42,0,0,1-.12.57A.39.39,0,0,1,132.62,196.86Z" style="fill:#37474f"></path><path d="M134.21,194h0a.43.43,0,0,1-.39-.45.4.4,0,0,0-.14-.35.9.9,0,0,0-.64-.2.42.42,0,0,1-.48-.35.43.43,0,0,1,.35-.47,1.7,1.7,0,0,1,1.34.42,1.23,1.23,0,0,1,.4,1A.42.42,0,0,1,134.21,194Z" style="fill:#37474f"></path><path d="M124.64,188.21l-.12,0a.41.41,0,0,1-.27-.52l3-9.67a1.28,1.28,0,0,0-.09-1l-1.54-3a.42.42,0,0,1,.18-.56.41.41,0,0,1,.56.18l1.54,3a2.12,2.12,0,0,1,.14,1.6l-3,9.68A.43.43,0,0,1,124.64,188.21Z" style="fill:#37474f"></path><path d="M120.79,190.34h-.07a.42.42,0,0,1-.33-.48,3,3,0,0,1,1.61-2.25,3.47,3.47,0,0,1,2.82-.19.41.41,0,0,1-.35.75,2.73,2.73,0,0,0-2.09.17A2.22,2.22,0,0,0,121.2,190,.41.41,0,0,1,120.79,190.34Z" style="fill:#37474f"></path><path d="M122.23,191.81a.42.42,0,0,1-.41-.36,4,4,0,0,1,.82-3,2.79,2.79,0,0,1,2-1.1.42.42,0,1,1,.06.83,1.93,1.93,0,0,0-1.38.79,3.15,3.15,0,0,0-.65,2.33.41.41,0,0,1-.35.47Z" style="fill:#37474f"></path><path d="M124.32,192.06a.42.42,0,0,1-.35-.19,5,5,0,0,1-.35-3.31,1.72,1.72,0,0,1,.84-1.14.42.42,0,0,1,.56.19.42.42,0,0,1-.2.56.93.93,0,0,0-.4.61,4.31,4.31,0,0,0,.25,2.64.41.41,0,0,1-.13.57A.34.34,0,0,1,124.32,192.06Z" style="fill:#37474f"></path><path d="M125.9,189.2h0a.42.42,0,0,1-.38-.45.43.43,0,0,0-.14-.35.93.93,0,0,0-.65-.2.41.41,0,0,1-.47-.34.43.43,0,0,1,.35-.48,1.67,1.67,0,0,1,1.33.42,1.21,1.21,0,0,1,.41,1A.42.42,0,0,1,125.9,189.2Z" style="fill:#37474f"></path><g id="freepik--bird--inject-80"><path d="M153.62,153.43c2.14,1.9,21.56-2.72,21.79,2,0,0,6.74-1,10,1.6s.26,3.64.26,3.64,5.94,3.5-.61,4.57-21.63-1.39-21.63-1.39Z" style="fill:#37474f"></path><path d="M163,155.74c2,0,3.93,0,5.9-.05s3.9,0,5.84-.11c0,0,.06-.13,0-.14a49.81,49.81,0,0,0-5.86,0c-2,0-3.92.13-5.88.25,0,0,0,0,0,0Z" style="fill:#263238"></path><path d="M168.53,159.76c2.9.12,5.8.11,8.7.26,1.4.07,2.79.16,4.18.28,1.23.11,2.47.16,3.69.34,0,0,0,0,0,0a55.53,55.53,0,0,0-7.72-.82,72.6,72.6,0,0,0-8.85-.09s0,0,0,0Z" style="fill:#263238"></path><path d="M165.13,166.56s-3.4,7-16.31,11.73c-10.89,4-23.55,2.15-32.16-2.56-10.31-5.63-11-12.77-10.94-16.95v-.59c0-.24,0-.45,0-.66l0-.4c0-.11,0-.21,0-.32a9.48,9.48,0,0,0-.64-2.15l-.15-.27a29.05,29.05,0,0,0,4.79,2.05c2.73.87,6.56-.26,9.12-2.79s2.55-3.63,1.09-5-2.79-1.47-5.47.61-10.58,2.11-10.58,2.11v-6L115,133.79a16.12,16.12,0,0,1,2.56.37l.83.22c.29.08.56.17.83.27a13.53,13.53,0,0,1,1.62.68c.27.13.53.27.79.42,1.57.91,2.76,1.68,3.85,2.39,3.05,2,5.26,3.51,12.45,6a41.72,41.72,0,0,1,5.88,2.56h0l1.26.68c.82.47,1.62,1,2.39,1.44l1.05.69.08,0,1,.7c.87.62,1.71,1.25,2.5,1.89l1,.82c.8.67,1.56,1.34,2.29,2l.07.06c.33.32.66.62,1,.91l1,1,.73.73q.54.54,1,1.05A33.65,33.65,0,0,1,165.13,166.56Z" style="fill:#25FFEB"></path><path d="M165.13,166.56s-3.4,7-16.31,11.73c-10.89,4-23.55,2.15-32.16-2.56-10.31-5.63-11-12.77-10.94-16.95v-.59c0-.24,0-.45,0-.66l0-.4c0-.11,0-.21,0-.32a9.48,9.48,0,0,0-.64-2.15l-.15-.27a29.05,29.05,0,0,0,4.79,2.05c2.73.87,6.56-.26,9.12-2.79s2.55-3.63,1.09-5-2.79-1.47-5.47.61-10.58,2.11-10.58,2.11v-6L115,133.79a16.12,16.12,0,0,1,2.56.37l.83.22c.29.08.56.17.83.27a13.53,13.53,0,0,1,1.62.68c.27.13.53.27.79.42,1.57.91,2.76,1.68,3.85,2.39,3.05,2,5.26,3.51,12.45,6a41.72,41.72,0,0,1,5.88,2.56h0l1.26.68c.82.47,1.62,1,2.39,1.44l1.05.69.08,0,1,.7c.87.62,1.71,1.25,2.5,1.89l1,.82c.8.67,1.56,1.34,2.29,2l.07.06c.33.32.66.62,1,.91l1,1,.73.73q.54.54,1,1.05A33.65,33.65,0,0,1,165.13,166.56Z" style="fill:#fff;opacity:0.4"></path><path d="M165.13,166.56a44.28,44.28,0,0,1-22.34-.74c-12.4-3.58-16.53-7.58-19.72-7.86s-6.72,1.84-11.66,2.1a11,11,0,0,1-5.69-1.28v-.59c0-.24,0-.45,0-.66l0-.4c0-.11,0-.21,0-.32a9.48,9.48,0,0,0-.64-2.15l-.15-.27a29.05,29.05,0,0,0,4.79,2.05c2.73.87,6.56-.26,9.12-2.79s2.55-3.63,1.09-5-2.79-1.47-5.47.61-10.58,2.11-10.58,2.11v-6L115,133.79a16.12,16.12,0,0,1,2.56.37l.83.22c.29.08.56.17.83.27a13.53,13.53,0,0,1,1.62.68c.27.13.53.27.79.42,1.57.91,2.76,1.68,3.85,2.39,1.89,3.38,2.57,5.37,1.82,7.22a49,49,0,0,1-4.22,8c-1.21,1.61-3,3.11,5.91,1.16s16.57-4.3,14.81-7.78l1.26.68c.82.47,1.62,1,2.39,1.44l1.05.69.08,0,1,.7c.87.62,1.71,1.25,2.5,1.89l1,.82c.81.67,1.56,1.34,2.29,2l.07.06c.33.32.66.62,1,.91l1,1,.73.73q.54.54,1,1.05A33.65,33.65,0,0,1,165.13,166.56Z" style="fill:#455a64"></path><path d="M131.18,148.05c13.47-.88,25.83,4.79,32.66,9s9.38,7.87,4.21,10.46S140.21,161.68,131.18,148.05Z" style="fill:#455a64"></path><path d="M122.67,136.37h0l-1-.62a15.06,15.06,0,0,0-4.28-1.63l.21,0a16.2,16.2,0,0,0-13.77,3,12.69,12.69,0,0,0-2.45,2.88,10.54,10.54,0,0,0-1.17,2.71,5.85,5.85,0,0,0,.57,5.11l1.11,1.88h0l2.19,3.76a2.55,2.55,0,0,1,.76.89h0a29.05,29.05,0,0,0,4.79,2.05c2.73.87,6.56-.26,9.12-2.79s2.55-3.63,1.09-5-2.79-1.47-5.47.61-10.58,2.11-10.58,2.11v-1.26a6.58,6.58,0,0,0,2.07-.33,11.41,11.41,0,0,0,5.71-3.38c1.25-1.67,1.57-3,3.37-3.26,3.62-.59,6.36,1.48,7.3,1.51.59,0,2.13-1.57,2.24-2.47C124.71,140.07,124,137.19,122.67,136.37Zm-6.35-2.44h0Z" style="fill:#fafafa"></path><path d="M113.79,140.25c2.18-.46,5.46-1.36,6.77-3.34a3.15,3.15,0,0,0,.5-1.45c-5.88-3.05-13.3-1.78-17.28,1.69a14.19,14.19,0,0,0-1,1C104.31,141.49,111.05,140.84,113.79,140.25Z" style="fill:#455a64"></path><path d="M97.53,155.69c1.22.41,2.63-.21,3.93-.47s2.91-.72,3.6-.92a1.4,1.4,0,0,0,.65-.39,2.45,2.45,0,0,0,.52-2.45,12.59,12.59,0,0,0-4.63,1.09A8.06,8.06,0,0,0,97.53,155.69Z" style="fill:#263238"></path><path d="M103.2,147.19c-1.21-.7-2,0-2.88.87-1.37,1.27-3.84,5.51-4,7.1s2.65,0,5.07-1.32,4.06-1.9,4.89-2.38S104.89,148.16,103.2,147.19Z" style="fill:#455a64"></path><path d="M131.18,148.05c7.3-.49,12.27,2,11.47,4.34,8.79-.73,12.13,4.31,8.75,5.52,10.61,0,14,3.16,9.47,4.73,9.79,0,12.74,7.46-7.38,10.24C133.37,167.5,131.18,148.05,131.18,148.05Z" style="fill:#37474f"></path><path d="M131.18,148.05c-3.37,6.2-3.61,15.86-.4,20.29s11.61,6,18.72,5.6,7.66-5.71,0-7.91c2.52-1.46.91-5.13-4.84-6.31,3.2-3.55-3.19-5.09-5.56-5.23C138.55,150,134,148.05,131.18,148.05Z" style="fill:#263238"></path><path d="M112.09,147.72a.37.37,0,0,1,0-.18,2.08,2.08,0,0,1,.12-.32c.07-.21.07-.43.13-.64a1.44,1.44,0,0,1,.24-.48,1.64,1.64,0,0,1,.89-.59,2,2,0,0,1,1.06,0,1.83,1.83,0,0,1,.79.39,1.27,1.27,0,0,0,.27.18l.15.07a.41.41,0,0,1,.12.44c0,.1-.13.17-.17.27a1.67,1.67,0,0,0-.09.4,1.38,1.38,0,0,1-.88,1.12,2.18,2.18,0,0,1-.8.14,2.28,2.28,0,0,1-.81-.19c-.26-.11-.49-.26-.76-.36a.5.5,0,0,1-.19-.1A.23.23,0,0,1,112.09,147.72Z" style="fill:#263238"></path></g></g></g></svg>