<svg xmlns="http://www.w3.org/2000/svg" viewBox="0 0 500 500"><g id="freepik--Floor--inject-4"><path id="freepik--floor--inject-4" d="M414.26,451.11c90.71-52.37,90.71-137.29,0-189.67s-237.8-52.37-328.52,0-90.71,137.3,0,189.67S323.54,503.49,414.26,451.11Z" style="fill:#f5f5f5"></path></g><g id="freepik--Graphics--inject-4"><g id="freepik--Icons--inject-4"><g id="freepik--Plus--inject-4"><polygon id="freepik--plus--inject-4" points="382.32 89.48 381.36 83.7 375.57 84.67 376.54 90.45 370.76 91.42 371.73 97.2 377.51 96.23 378.48 102.02 384.26 101.05 383.3 95.27 389.08 94.3 388.11 88.51 382.32 89.48" style="fill:#e0e0e0"></polygon><polygon id="freepik--plus--inject-4" points="387.55 219.74 389.01 214.06 383.33 212.6 381.87 218.28 376.2 216.82 374.74 222.5 380.41 223.96 378.95 229.63 384.63 231.09 386.09 225.42 391.77 226.88 393.23 221.2 387.55 219.74" style="fill:#e0e0e0"></polygon><polygon id="freepik--plus--inject-4" points="286.13 53.46 287.94 47.88 282.37 46.07 280.55 51.64 274.98 49.83 273.16 55.4 278.74 57.22 276.92 62.79 282.49 64.6 284.31 59.03 289.88 60.85 291.7 55.27 286.13 53.46" style="fill:#e0e0e0"></polygon><polygon id="freepik--plus--inject-4" points="240.88 126.71 241.85 120.93 247.63 121.9 246.66 127.68 252.44 128.65 251.47 134.43 245.69 133.46 244.72 139.25 238.94 138.28 239.91 132.49 234.13 131.52 235.1 125.74 240.88 126.71" style="fill:#e0e0e0"></polygon><polygon id="freepik--plus--inject-4" points="129.99 50.68 128.39 45.04 134.03 43.44 135.63 49.08 141.27 47.48 142.87 53.12 137.23 54.72 138.83 60.35 133.19 61.95 131.59 56.31 125.95 57.91 124.35 52.28 129.99 50.68" style="fill:#e0e0e0"></polygon><polygon id="freepik--plus--inject-4" points="40.12 248.69 38.3 243.12 43.87 241.29 45.69 246.87 51.27 245.04 53.09 250.61 47.52 252.44 49.34 258.01 43.77 259.83 41.95 254.26 36.38 256.09 34.55 250.51 40.12 248.69" style="fill:#e0e0e0"></polygon></g><g id="freepik--Dots--inject-4"><path id="freepik--Dot--inject-4" d="M312,112a2.95,2.95,0,1,1,2.95,3A3,3,0,0,1,312,112Z" style="fill:#ebebeb"></path><path id="freepik--dot--inject-4" d="M194.24,81.48a2.95,2.95,0,1,1,2.95,3A2.95,2.95,0,0,1,194.24,81.48Z" style="fill:#ebebeb"></path><path id="freepik--dot--inject-4" d="M39.88,198.74a3,3,0,1,1,2.95,2.95A2.95,2.95,0,0,1,39.88,198.74Z" style="fill:#ebebeb"></path><path id="freepik--dot--inject-4" d="M214.55,177.63a2.95,2.95,0,1,1,2.95,3A2.95,2.95,0,0,1,214.55,177.63Z" style="fill:#ebebeb"></path><path id="freepik--dot--inject-4" d="M360.78,36.92a3,3,0,1,1,3,2.95A2.95,2.95,0,0,1,360.78,36.92Z" style="fill:#ebebeb"></path><path id="freepik--dot--inject-4" d="M43.94,60.37a3,3,0,1,1,3,3A2.95,2.95,0,0,1,43.94,60.37Z" style="fill:#ebebeb"></path><path id="freepik--dot--inject-4" d="M450.15,65.06a3,3,0,1,1,3,3A2.95,2.95,0,0,1,450.15,65.06Z" style="fill:#ebebeb"></path><path id="freepik--dot--inject-4" d="M470.46,180a2.95,2.95,0,1,1,3,3A2.95,2.95,0,0,1,470.46,180Z" style="fill:#ebebeb"></path><path id="freepik--dot--inject-4" d="M461.22,266.75a3,3,0,1,1,3,2.95A3,3,0,0,1,461.22,266.75Z" style="fill:#ebebeb"></path><path id="freepik--dot--inject-4" d="M389.22,165.91a2.95,2.95,0,1,1,2.95,3A3,3,0,0,1,389.22,165.91Z" style="fill:#ebebeb"></path></g></g></g><g id="freepik--Shadows--inject-4"><path id="freepik--Shadow--inject-4" d="M387.15,291.21c0-.13,0-.26,0-.4s0,0,0-.07a6.53,6.53,0,0,0-.11-.86c0-.06,0-.12-.05-.18l0-.14a6.68,6.68,0,0,0-.33-.95,1.8,1.8,0,0,0-.08-.21,8.86,8.86,0,0,0-.46-.85l-.15-.26c-.18-.26-.37-.52-.58-.78l-.23-.29c-.19-.22-.4-.43-.62-.64l-.07-.07c-.11-.1-.2-.21-.32-.31s-.54-.45-.84-.68l-.34-.27c-.43-.31-.89-.6-1.38-.89l-9.58-5.53-1.49-.86c-.47-.27-.95-.52-1.46-.76-7.55-3.55-18.68-3.3-25.72.76l-58.85,34-2.28,1.32-9,5.19-4.4,2.54-31.9,18.42-11.73,6.77c-1.06.62-2.12,1.28-3.18,2-11.11,7.43-22.05,19.78-34.56,31.19-3,2.72-6,5.38-9.22,7.91-2.54,2-5.16,4-7.86,5.79l-15.15,10.19-9.55,6.41-14,9.35L111.07,429.9l-.24.15A5.81,5.81,0,0,0,108,434v0l0,.19,0,.23a5.34,5.34,0,0,0,0,.69,5.82,5.82,0,0,0,8.22,5.29l.28-.16L137,428.34l0,0,.05,0h0s19.93-9.93,45.1-22.4,64.19-14.06,81.19-23.88L369.6,320.66h0c4.42-2.55,8.44-4.89,11.92-6.88.47-.28.91-.56,1.32-.85,2.87-2,4.31-4.52,4.31-7Z" style="fill:#e0e0e0"></path><path id="freepik--shadow--inject-4" d="M461.82,320.8l-.06-.46q0-.4-.12-.81l-.12-.57c0-.21-.1-.42-.16-.63s-.12-.43-.19-.65-.08-.2-.11-.31a14.59,14.59,0,0,0-1.28-2.67.22.22,0,0,0,0-.08,14.23,14.23,0,0,0-18-5.48l-.67.39L247.35,421.34h0s-2.54,1.36-5.11,2.85c-6.75,3.9-5.8,13.09-11.42,16.36-3.15,1.84-4.66,2.69-8.74,5.05l-29,16.78-.24.15a5.8,5.8,0,0,0-2.8,4v0c0,.06,0,.12,0,.18a2.23,2.23,0,0,0,0,.23,5.36,5.36,0,0,0-.05.7,5.82,5.82,0,0,0,5.82,5.81,5.74,5.74,0,0,0,2.41-.53l.27-.15,39-22.52c1.19-.68,3.43-.59,6.16-.44l2.87.14c4,.15,8.51,0,12.22-2.15L454.13,334.85l.29-.18.3-.18a14.47,14.47,0,0,0,2.92-2.23,13.13,13.13,0,0,0,1.22-1.37,14.64,14.64,0,0,0,1.05-1.52,14.23,14.23,0,0,0,2-7.24h0C461.89,321.68,461.86,321.24,461.82,320.8Z" style="fill:#e0e0e0"></path><path id="freepik--shadow--inject-4" d="M111.09,388.24,43.78,349.38c-7.18-4.14-7.18-10.86,0-15l51.76-29.89c7.17-4.14,18.8-4.14,26,0l67.31,38.86c7.17,4.15,7.17,10.86,0,15l-51.76,29.89C129.89,392.38,118.26,392.38,111.09,388.24Z" style="fill:#e0e0e0"></path></g><g id="freepik--thermometer-3--inject-4"><g id="freepik--mercury-thermometer--inject-4"><path d="M442.75,299.83a14.11,14.11,0,0,0-5.92,1.29l-.67.38L242.49,413.31h0s-2.53,1.37-5.1,2.85c-6.76,3.9-5.81,13.09-11.43,16.36-3.15,1.84-4.66,2.69-8.74,5.05l5.36,10.31,9.93-5.73c3.16-1.83,13.84,1.83,21.25-2.46L449.27,326.82l.59-.36a14.26,14.26,0,0,0-7.11-26.63Z" style="fill:#25FFEB"></path><path d="M442.75,299.83a14.11,14.11,0,0,0-5.92,1.29l-.67.38L242.49,413.31h0s-2.53,1.37-5.1,2.85c-6.76,3.9-5.81,13.09-11.43,16.36-3.15,1.84-4.66,2.69-8.74,5.05l5.36,10.31,9.93-5.73c3.16-1.83,13.84,1.83,21.25-2.46L449.27,326.82l.59-.36a14.26,14.26,0,0,0-7.11-26.63Z" style="fill:#fff;opacity:0.8"></path><polygon points="451.18 318.85 434.18 309.04 238.67 421.91 238.67 423.29 255.67 433.11 451.18 320.23 451.18 318.85" style="fill:#e0e0e0"></polygon><polygon points="238.67 421.91 255.67 431.73 255.67 433.11 238.67 423.29 238.67 421.91" style="opacity:0.1"></polygon><polygon points="238.67 421.91 255.67 431.73 451.18 318.85 434.18 309.04 238.67 421.91" style="fill:#fafafa"></polygon><path d="M360.6,361.18l-4.35-2.51h0l-2.45-1.42a.26.26,0,0,0-.36.1.27.27,0,0,0,.1.36l6.8,3.92.42.25h0l2.45,1.41a.2.2,0,0,0,.13,0,.28.28,0,0,0,.23-.13.26.26,0,0,0-.1-.36ZM270,413.51,265.61,411h0l-2.45-1.42a.26.26,0,0,0-.26.46l6.8,3.92.42.25h0l2.45,1.41a.22.22,0,0,0,.13,0,.28.28,0,0,0,.23-.13.26.26,0,0,0-.1-.36Zm65-40.94a.27.27,0,0,0-.36.1.26.26,0,0,0,.1.35l2.45,1.42h0l.91.52h0l2.45,1.42a.31.31,0,0,0,.13,0,.28.28,0,0,0,.23-.13.26.26,0,0,0-.1-.36Zm-19.72,14.77-4.35-2.51h0l-2.45-1.41a.27.27,0,0,0-.36.09.26.26,0,0,0,.1.36l6.8,3.93.42.25h0l2.45,1.41a.31.31,0,0,0,.13,0,.26.26,0,0,0,.23-.13.27.27,0,0,0-.1-.36Zm91.06-52.08h0l-4.77-2.76h0l-2.44-1.41a.27.27,0,0,0-.36.09.26.26,0,0,0,.1.36l9.67,5.59a.28.28,0,0,0,.13,0,.26.26,0,0,0,.23-.13.26.26,0,0,0-.1-.35ZM289.68,398.73a.26.26,0,0,0-.26.46l2.45,1.41h0l4.84,2.79h0l2.45,1.42a.31.31,0,0,0,.13,0,.28.28,0,0,0,.23-.13.26.26,0,0,0-.1-.36Zm145.7-72.87-6.8-3.93-.49-.28h0l-2.45-1.41a.26.26,0,0,0-.36.1.25.25,0,0,0,.1.35l2.93,1.7,4.36,2.51h0l2.45,1.41a.2.2,0,0,0,.13,0,.26.26,0,0,0,.22-.13A.27.27,0,0,0,435.38,325.86ZM383.26,348.1l-.49-.28h0l-2.45-1.41a.25.25,0,0,0-.36.09.26.26,0,0,0,.1.36l2.94,1.69,4.35,2.51h0l2.45,1.42a.26.26,0,1,0,.26-.46Zm-129,69.44a.27.27,0,0,0-.36.09.26.26,0,0,0,.1.36l8.7,5a.31.31,0,0,0,.13,0,.28.28,0,0,0,.23-.13.27.27,0,0,0-.1-.36Zm22.66-13.09a.26.26,0,1,0-.26.46l8.7,5a.22.22,0,0,0,.13,0,.28.28,0,0,0,.23-.13.26.26,0,0,0-.1-.36ZM390.24,339a.26.26,0,0,0-.36.1.27.27,0,0,0,.09.36l8.71,5a.2.2,0,0,0,.13,0,.28.28,0,0,0,.23-.13.27.27,0,0,0-.1-.36ZM412.89,326a.25.25,0,0,0-.35.1.26.26,0,0,0,.09.35l8.71,5a.28.28,0,0,0,.13,0,.26.26,0,0,0,.23-.13.26.26,0,0,0-.1-.35Zm-45.31,26.17a.25.25,0,0,0-.36.09.27.27,0,0,0,.09.36l8.71,5a.22.22,0,0,0,.13,0,.28.28,0,0,0,.23-.13.26.26,0,0,0-.1-.36Zm-22.66,13.08a.27.27,0,0,0-.36.09.26.26,0,0,0,.1.36l8.7,5a.31.31,0,0,0,.13,0,.28.28,0,0,0,.23-.13.27.27,0,0,0-.1-.36ZM299.6,391.37a.26.26,0,1,0-.26.46l8.7,5a.33.33,0,0,0,.13,0,.28.28,0,0,0,.23-.13.26.26,0,0,0-.1-.36Zm22.66-13.08a.26.26,0,0,0-.36.1.25.25,0,0,0,.1.35l8.7,5a.31.31,0,0,0,.13,0,.26.26,0,0,0,.23-.13.25.25,0,0,0-.1-.35Z" style="fill:#455a64"></path><path d="M275.76,417.41a1.63,1.63,0,0,0-.46-.18,1.56,1.56,0,0,0-.48,0,2.11,2.11,0,0,0-.49.09,2.18,2.18,0,0,0-.47.21l-.09.05-.16-1.17a.06.06,0,0,0,0,0l0,0-.07,0a.18.18,0,0,0-.2,0l-1.66,1c-.07,0-.06.07,0,.11l.07,0a.18.18,0,0,0,.2,0l1.34-.77.16,1.15,0,0a.11.11,0,0,0,.05,0l.06,0a.18.18,0,0,0,.2,0l.39-.23a1.89,1.89,0,0,1,.68-.23,1.17,1.17,0,0,1,.67.16.67.67,0,0,1,.23.2.29.29,0,0,1,.05.22.48.48,0,0,1-.13.21,1.18,1.18,0,0,1-.27.2,1.69,1.69,0,0,1-.27.13l-.3.1a1.27,1.27,0,0,1-.34,0,.91.91,0,0,1-.35-.07.42.42,0,0,0-.14,0l-.09,0-.06,0a.05.05,0,0,0,0,.05s0,0,0,.05a1,1,0,0,0,.36.12,2.2,2.2,0,0,0,.45,0,2.33,2.33,0,0,0,1-.31,1.55,1.55,0,0,0,.36-.28.63.63,0,0,0,.16-.3.42.42,0,0,0-.07-.3A1,1,0,0,0,275.76,417.41Zm2.8-1.22a1.19,1.19,0,0,0-.37-.31,1.75,1.75,0,0,0-.52-.2,2,2,0,0,0-.54-.05,2.45,2.45,0,0,0-.53.09,2.55,2.55,0,0,0-.48.2,1,1,0,0,0-.33.26,1,1,0,0,0-.09.16l-.91-.63,1.27-.74c.07,0,.07-.08,0-.11l-.07,0a.17.17,0,0,0-.19,0l-1.45.83c-.06,0-.06.07,0,.12l1.32.91a.18.18,0,0,0,.2,0l.08,0a.15.15,0,0,0,.08-.1.93.93,0,0,1,0-.13.49.49,0,0,1,.09-.15.57.57,0,0,1,.23-.18,1.14,1.14,0,0,1,.36-.15,1.68,1.68,0,0,1,.39-.07,1.72,1.72,0,0,1,.39,0,1.24,1.24,0,0,1,.38.14.9.9,0,0,1,.27.23.39.39,0,0,1,.07.23.43.43,0,0,1-.1.23.92.92,0,0,1-.26.21,1.11,1.11,0,0,1-.27.12,1.08,1.08,0,0,1-.31.07,1.28,1.28,0,0,1-.34,0,1.55,1.55,0,0,1-.36-.08l-.13,0-.08,0-.08.05s-.05,0-.05.05a.05.05,0,0,0,0,0,1.31,1.31,0,0,0,.38.13,2,2,0,0,0,1,0,1.67,1.67,0,0,0,.5-.21,1.3,1.3,0,0,0,.36-.27.54.54,0,0,0,.14-.31A.49.49,0,0,0,278.56,416.19Z"></path><path d="M287.49,398.05a1.38,1.38,0,0,0-.46-.18,1.56,1.56,0,0,0-.48,0,2.11,2.11,0,0,0-.49.09,2.18,2.18,0,0,0-.47.21l-.09.05-.16-1.17s0,0,0,0,0,0,0,0l-.07,0a.18.18,0,0,0-.2,0l-1.66,1c-.07,0-.06.08,0,.12l.07,0a.18.18,0,0,0,.2,0l1.34-.78.16,1.16a.08.08,0,0,0,0,0,.11.11,0,0,0,0,0l.06,0a.18.18,0,0,0,.2,0l.39-.23a1.72,1.72,0,0,1,.68-.23,1.09,1.09,0,0,1,.67.16.58.58,0,0,1,.23.2.28.28,0,0,1,.05.21.46.46,0,0,1-.13.22,1.18,1.18,0,0,1-.27.2,1.69,1.69,0,0,1-.27.13,1.49,1.49,0,0,1-.3.09,1.27,1.27,0,0,1-.34,0,1.15,1.15,0,0,1-.35-.07.42.42,0,0,0-.14,0l-.09,0-.06,0a.05.05,0,0,0,0,.05s0,0,0,.05a1.17,1.17,0,0,0,.36.12,2.2,2.2,0,0,0,.45,0,2.29,2.29,0,0,0,.5-.09,2.91,2.91,0,0,0,.51-.22,1.55,1.55,0,0,0,.36-.28.63.63,0,0,0,.16-.3.42.42,0,0,0-.07-.3A1,1,0,0,0,287.49,398.05Zm2.82-1.33a1.18,1.18,0,0,0-.31-.26,1.7,1.7,0,0,0-.46-.18,1.91,1.91,0,0,0-.54-.08,2.21,2.21,0,0,0-.57.06,2,2,0,0,0-.56.22l-.15.1-.11.09-.28-.92s0,0,0,0l0,0-.1,0a.1.1,0,0,0-.09,0l-.09,0s-.06.05,0,.08,0,0,0,.06l.35,1.21a1.12,1.12,0,0,0,.05.13.89.89,0,0,0,.09.16l.15.17a1.4,1.4,0,0,0,.22.16,2.34,2.34,0,0,0,.45.18,2.52,2.52,0,0,0,.54.08,2.93,2.93,0,0,0,.58-.06,2.18,2.18,0,0,0,.55-.22,1,1,0,0,0,.38-.32.57.57,0,0,0,.11-.33A.61.61,0,0,0,290.31,396.72Zm-.36.61a1,1,0,0,1-.25.2,1.84,1.84,0,0,1-.35.15,2.7,2.7,0,0,1-.41.06,1.5,1.5,0,0,1-.42,0,1.38,1.38,0,0,1-.4-.15.82.82,0,0,1-.27-.24.44.44,0,0,1-.07-.24.45.45,0,0,1,.11-.23.87.87,0,0,1,.25-.21,1.6,1.6,0,0,1,.35-.14,1.39,1.39,0,0,1,.4-.06,1.5,1.5,0,0,1,.42,0,1.56,1.56,0,0,1,.41.15,1.08,1.08,0,0,1,.27.23.4.4,0,0,1,.06.25A.37.37,0,0,1,290,397.33Z"></path><path d="M321.27,391.14a1.66,1.66,0,0,0-.46-.19,2,2,0,0,0-.49,0,2,2,0,0,0-.48.09,2.18,2.18,0,0,0-.47.21l-.09,0-.16-1.18a0,0,0,0,0,0,0l0,0-.06,0a.2.2,0,0,0-.21,0l-1.65.95q-.11.06,0,.12l.07,0a.21.21,0,0,0,.19,0l1.34-.78.17,1.15s0,0,0,0l.05,0,.06,0a.23.23,0,0,0,.2,0l.39-.23a1.67,1.67,0,0,1,.68-.23,1.09,1.09,0,0,1,.67.16.58.58,0,0,1,.23.2.27.27,0,0,1,0,.21.38.38,0,0,1-.12.21,1.36,1.36,0,0,1-.28.21l-.26.13a1.58,1.58,0,0,1-.31.09l-.33,0a1.15,1.15,0,0,1-.36-.07.22.22,0,0,0-.13,0l-.09,0-.06,0a.05.05,0,0,0,0,.05s0,0,0,0a1.52,1.52,0,0,0,.36.12,1.68,1.68,0,0,0,.45,0,2.29,2.29,0,0,0,.5-.09,2.07,2.07,0,0,0,.51-.22,1.32,1.32,0,0,0,.36-.28.65.65,0,0,0,.16-.29.48.48,0,0,0-.07-.3A.77.77,0,0,0,321.27,391.14Zm1.88-.2-1.54-2.19-.05-.06-.08-.05-.07,0a.18.18,0,0,0-.2,0l-1.72,1c-.06,0-.06.07,0,.11l.06,0a.18.18,0,0,0,.2,0l1.51-.87,1.57,2.22,0,0,.09,0s.07,0,.09,0l.1-.05s0,0,0-.07Z"></path><path d="M332.73,371.93a2,2,0,0,0-.46-.18,1.56,1.56,0,0,0-.48,0,2.11,2.11,0,0,0-.49.09,2.18,2.18,0,0,0-.47.21l-.09.05-.16-1.17a.06.06,0,0,0,0,0s0,0,0,0l-.07,0a.18.18,0,0,0-.2,0l-1.66,1c-.07,0-.07.07,0,.11l.07,0a.17.17,0,0,0,.19,0l1.35-.77.16,1.15a.08.08,0,0,0,0,0,.11.11,0,0,0,.05,0l.06,0a.18.18,0,0,0,.2,0l.39-.22a1.53,1.53,0,0,1,.68-.23,1.08,1.08,0,0,1,.67.15.67.67,0,0,1,.23.2.29.29,0,0,1,.05.22.48.48,0,0,1-.13.21,1.18,1.18,0,0,1-.27.2,1.69,1.69,0,0,1-.27.13l-.3.1a1.27,1.27,0,0,1-.34,0,.92.92,0,0,1-.36-.07.34.34,0,0,0-.13,0l-.09,0-.06,0a.05.05,0,0,0,0,.05s0,0,0,.05a1,1,0,0,0,.36.12,2.2,2.2,0,0,0,.45,0,2.33,2.33,0,0,0,1-.31,1.55,1.55,0,0,0,.36-.28.63.63,0,0,0,.16-.3.42.42,0,0,0-.07-.3A1,1,0,0,0,332.73,371.93Zm3-1.28a.86.86,0,0,0-.31-.28,1.67,1.67,0,0,0-.62-.2,2.16,2.16,0,0,0-.67,0,.4.4,0,0,0,0-.32.66.66,0,0,0-.3-.3,1.72,1.72,0,0,0-.43-.16,1.85,1.85,0,0,0-.47,0,2,2,0,0,0-.48.09,2.11,2.11,0,0,0-.43.2,1.36,1.36,0,0,0-.34.25.55.55,0,0,0-.16.27.37.37,0,0,0,0,.27.7.7,0,0,0,.28.25,1.55,1.55,0,0,0,.51.18,2,2,0,0,0,.55,0,.43.43,0,0,0-.06.38.7.7,0,0,0,.35.36,1.64,1.64,0,0,0,.48.18,2.33,2.33,0,0,0,.53,0,2.41,2.41,0,0,0,.52-.11,2,2,0,0,0,.49-.21,1.63,1.63,0,0,0,.37-.28.66.66,0,0,0,.18-.31A.46.46,0,0,0,335.75,370.65Zm-2.64,0a1.47,1.47,0,0,1-.34.07,1.22,1.22,0,0,1-.33,0,.85.85,0,0,1-.28-.1.37.37,0,0,1-.18-.17.23.23,0,0,1,0-.18.53.53,0,0,1,.12-.2,1.25,1.25,0,0,1,.24-.18,1.55,1.55,0,0,1,.32-.14,1.94,1.94,0,0,1,.33-.07,1.76,1.76,0,0,1,.33,0,.91.91,0,0,1,.29.1.46.46,0,0,1,.17.17.25.25,0,0,1,0,.19.5.5,0,0,1-.12.19,1.08,1.08,0,0,1-.23.18A1.23,1.23,0,0,1,333.11,370.62Zm2.15.56a1.59,1.59,0,0,1-.27.21,2.43,2.43,0,0,1-.37.16,1.78,1.78,0,0,1-.39.07,1.28,1.28,0,0,1-.39,0,.93.93,0,0,1-.33-.12.51.51,0,0,1-.21-.2.33.33,0,0,1,0-.22.54.54,0,0,1,.14-.22,1,1,0,0,1,.27-.21,1.73,1.73,0,0,1,.37-.16,1.8,1.8,0,0,1,.39-.08,1.6,1.6,0,0,1,.38,0,1.5,1.5,0,0,1,.34.12.58.58,0,0,1,.21.2.28.28,0,0,1,0,.22A.57.57,0,0,1,335.26,371.18Z"></path><path d="M366.4,365.08a2,2,0,0,0-.46-.18,1.56,1.56,0,0,0-.48,0,2,2,0,0,0-.49.09,2.18,2.18,0,0,0-.47.21l-.09,0-.16-1.17a.06.06,0,0,0,0,0l0,0-.06,0a.2.2,0,0,0-.21,0l-1.65,1c-.07,0-.07.07,0,.11l.07,0a.17.17,0,0,0,.19,0l1.35-.77.16,1.15,0,0a.11.11,0,0,0,.05,0l.06,0a.18.18,0,0,0,.2,0l.39-.22a1.53,1.53,0,0,1,.68-.23,1.08,1.08,0,0,1,.67.15.67.67,0,0,1,.23.2.29.29,0,0,1,0,.22.38.38,0,0,1-.12.21,1.18,1.18,0,0,1-.27.2l-.27.13-.31.1a1.22,1.22,0,0,1-.33,0,.92.92,0,0,1-.36-.07.34.34,0,0,0-.13,0l-.09,0-.06,0a.05.05,0,0,0,0,.05s0,0,0,0a1,1,0,0,0,.36.12,2.2,2.2,0,0,0,.45,0,2.29,2.29,0,0,0,.5-.09,2.53,2.53,0,0,0,.51-.22,1.55,1.55,0,0,0,.36-.28.63.63,0,0,0,.16-.3.42.42,0,0,0-.07-.3A1,1,0,0,0,366.4,365.08Zm2.14-.32-.38-1.27a1.12,1.12,0,0,0-.05-.13l-.08-.14a1,1,0,0,0-.14-.16l-.22-.16a1.54,1.54,0,0,0-.43-.17,2.18,2.18,0,0,0-.53-.08,2.74,2.74,0,0,0-.56.06,1.9,1.9,0,0,0-.56.21,1.1,1.1,0,0,0-.37.32.52.52,0,0,0-.09.33.51.51,0,0,0,.13.3,1.05,1.05,0,0,0,.3.25,2.24,2.24,0,0,0,.44.18,2.44,2.44,0,0,0,1.08,0,1.68,1.68,0,0,0,.56-.22,1.35,1.35,0,0,0,.25-.18l.29,1v0l0,0,.09,0a.16.16,0,0,0,.1,0l.09-.05s.06-.05.05-.07S368.53,364.78,368.54,364.76Zm-.92-1a.88.88,0,0,1-.25.2,1.22,1.22,0,0,1-.35.14,2.63,2.63,0,0,1-.39.06,1.84,1.84,0,0,1-.41,0,1.26,1.26,0,0,1-.38-.15.79.79,0,0,1-.25-.22.33.33,0,0,1-.07-.23.41.41,0,0,1,.09-.23.74.74,0,0,1,.25-.2,1.22,1.22,0,0,1,.35-.14,1.34,1.34,0,0,1,.4-.06,2,2,0,0,1,.41,0,1.2,1.2,0,0,1,.37.15.71.71,0,0,1,.26.21.36.36,0,0,1,.06.24A.44.44,0,0,1,367.62,363.75Z"></path><path d="M381.07,344.66a.69.69,0,0,0-.21-.32,2.31,2.31,0,0,0-.41-.31c-.23-.14-.48-.29-.74-.43a4.27,4.27,0,0,0-.53-.24,2.62,2.62,0,0,0-.57-.12,2,2,0,0,0-.59,0,1.89,1.89,0,0,0-.6.24,1.05,1.05,0,0,0-.41.34.45.45,0,0,0-.06.35.71.71,0,0,0,.22.33,2.91,2.91,0,0,0,.41.3c.24.15.49.29.74.43a3.14,3.14,0,0,0,.53.23,2.15,2.15,0,0,0,.57.13,3,3,0,0,0,.59,0,1.89,1.89,0,0,0,.6-.24A1.05,1.05,0,0,0,381,345,.42.42,0,0,0,381.07,344.66Zm-.72.54a1.5,1.5,0,0,1-.85.19,2.42,2.42,0,0,1-.92-.3l-.36-.21-.34-.2a1,1,0,0,1-.52-.53c-.05-.17.06-.34.32-.49a1.4,1.4,0,0,1,.85-.18,2.3,2.3,0,0,1,.92.29l.35.2.35.21a1.07,1.07,0,0,1,.52.53C380.72,344.88,380.61,345.05,380.35,345.2Zm-2.61.84.41-.24c.06,0,.06-.08,0-.11l-.07,0a.18.18,0,0,0-.2,0l-.4.23-2-1.12a.17.17,0,0,0-.19,0l-.18.1c-.08.05-.11.09-.09.14l.58,1.9a.16.16,0,0,0,0,.07l0,0,.07,0a.18.18,0,0,0,.2,0l1.46-.84.71.4a.17.17,0,0,0,.19,0l.09-.05c.06,0,.06-.07,0-.11Zm-1.75.7-.52-1.7,1.73,1Z"></path><path d="M414.52,338.2l-2.91-1.68a.18.18,0,0,0-.2,0l-.08.05-.05,0a.1.1,0,0,0,0,0l-.21,1s0,0,0,.06l.1,0h.11c.09,0,.14,0,.15-.07l.18-.82,2.65,1.53a.18.18,0,0,0,.2,0l.08-.05C414.59,338.28,414.59,338.24,414.52,338.2Zm-2.68.74.4-.23q.09-.06,0-.12l-.07,0a.23.23,0,0,0-.2,0l-.4.24-1.95-1.13a.21.21,0,0,0-.19,0l-.18.11c-.08,0-.11.09-.09.14l.58,1.89a.15.15,0,0,0,0,.08s0,0,0,0l.07,0a.18.18,0,0,0,.2,0l1.47-.85.7.41a.19.19,0,0,0,.19,0l.09-.05c.06,0,.06-.08,0-.11Zm-1.76.71-.52-1.7,1.73,1Z"></path><path d="M426.8,318.52l-.07,0a.23.23,0,0,0-.2,0l-1.49.86,0-1.21a1,1,0,0,0-.07-.46.84.84,0,0,0-.37-.35,2.3,2.3,0,0,0-.39-.17,1.69,1.69,0,0,0-.45-.07,2,2,0,0,0-.49.05,1.84,1.84,0,0,0-.51.21,1,1,0,0,0-.35.3.49.49,0,0,0-.08.3.55.55,0,0,0,.13.28,1,1,0,0,0,.25.21.17.17,0,0,0,.18,0l.09-.05a.05.05,0,0,0,0-.05.06.06,0,0,0,0-.07.53.53,0,0,1-.26-.39c0-.13.1-.26.31-.38a1.3,1.3,0,0,1,.65-.18,1.2,1.2,0,0,1,.64.17l.17.12a.49.49,0,0,1,.11.14.84.84,0,0,1,.05.17,1.77,1.77,0,0,1,0,.24v1.33a.31.31,0,0,0,0,.11l.06.06.07,0a.17.17,0,0,0,.19,0l1.82-1.05C426.86,318.6,426.86,318.56,426.8,318.52Zm-3.61,1.28.4-.23q.11-.06,0-.12l-.07,0a.17.17,0,0,0-.19,0l-.41.23L421,318.52a.18.18,0,0,0-.2,0l-.18.1c-.07.05-.11.09-.09.14l.58,1.9a.13.13,0,0,0,.05.07l0,0,.07.05a.21.21,0,0,0,.19,0l1.47-.85.7.4a.18.18,0,0,0,.2,0l.08,0q.09-.06,0-.12Zm-1.76.71-.52-1.7,1.73,1Z"></path><path d="M439.89,317.41,305.48,395a.87.87,0,0,0,.26-.68,2.49,2.49,0,0,0-1.11-1.92.86.86,0,0,0-.74-.1l134.43-77.59a1.57,1.57,0,1,1,1.57,2.72Z" style="fill:#455a64"></path><path d="M305.74,394.3a.87.87,0,0,1-.26.68l-.11.06-96.72,55.82a1.52,1.52,0,0,1-.79.22,1.57,1.57,0,0,1-.78-2.93l96.7-55.81.11-.06a.86.86,0,0,1,.74.1A2.49,2.49,0,0,1,305.74,394.3Z" style="fill:#25FFEB"></path><path d="M457,314.1a14.19,14.19,0,0,0-2.75-8.39c-.78,9.85-10.49,14.25-26.26,23.56S257.35,428.2,248.93,433.11s-7.5-2.9-23.43,6.58L220,443l2.56,4.92,9.93-5.73c3.16-1.83,13.84,1.83,21.25-2.46L449.27,326.82l.59-.36A14.24,14.24,0,0,0,457,314.1Z" style="fill:#25FFEB;opacity:0.2"></path><path d="M226.62,434.52a27.56,27.56,0,0,0,5.85-5.5,16.38,16.38,0,0,0,1.8-3.57,13.3,13.3,0,0,1,2-3.57c3.69-4.15,8.71-6.54,13.25-9.39l27.83-16.55c18.56-11,37.22-21.86,55.83-32.8s37.34-21.67,56.07-32.39l28.12-16.05c4.69-2.68,9.38-5.37,14.18-7.86a51.24,51.24,0,0,1,7.44-3.25,13.43,13.43,0,0,1,4-.61,10.59,10.59,0,0,1,3.92,1,10.63,10.63,0,0,0-3.92-.83,12.85,12.85,0,0,0-3.92.75,52,52,0,0,0-7.28,3.44c-4.71,2.62-9.31,5.44-13.91,8.25l-27.83,16.56c-18.57,11-37.23,21.87-55.84,32.8s-37.35,21.67-56.08,32.39L250,413.38l-7,4a28.71,28.71,0,0,0-6.3,4.88c-1.84,1.93-2.29,4.78-4,7A28.12,28.12,0,0,1,226.62,434.52Z" style="fill:#fff;opacity:0.4"></path><path d="M220,437.76a2.73,2.73,0,0,0-2.59-.29l-29.24,16.89-.24.14a5.8,5.8,0,0,0,2.9,10.84,5.89,5.89,0,0,0,2.41-.52h0l.27-.16,29.06-16.78,0,0A3.08,3.08,0,0,0,224,445,9.09,9.09,0,0,0,220,437.76Z" style="fill:#fafafa"></path><path d="M218.34,438.31a2.31,2.31,0,0,1,1.14.36A8,8,0,0,1,222.9,445c0,1-.28,1.73-.79,2l0,0h0L193,463.76l-.23.13a4.77,4.77,0,0,1-6.7-4.36,4.81,4.81,0,0,1,2.42-4.14l.22-.13,29.2-16.87a1,1,0,0,1,.43-.08m0-1.05a2,2,0,0,0-.92.21l-29.24,16.89-.24.14a5.81,5.81,0,0,0,2.9,10.84,5.89,5.89,0,0,0,2.41-.52l.27-.16,29.06-16.78,0,0A3.08,3.08,0,0,0,224,445a9.09,9.09,0,0,0-3.94-7.19,3.41,3.41,0,0,0-1.67-.5Z" style="fill:#e0e0e0"></path><path d="M222.62,447.86A3.08,3.08,0,0,0,224,445a8,8,0,0,0-.21-1.66c-4,2.24-23.87,13.52-28.76,16.29-6,3.38-9.36,2.51-9.85-1.16a5.8,5.8,0,0,0,5.71,6.92,5.89,5.89,0,0,0,2.41-.52l.27-.16,29.06-16.78Z" style="opacity:0.1"></path></g></g><g id="freepik--thermometer-2--inject-4"><g id="freepik--digital-thermometer--inject-4"><path d="M381,283c0-2.84-1.88-5.68-5.63-7.85l-11.07-6.39c-7.51-4.34-19.68-4.34-27.19,0L218.93,336.94c-17,9.81-33.22,32.34-54.81,46.87s-38.69,26-38.69,26v6.95l5.46,3.29s19.94-9.94,45.11-22.41,64.18-14.06,81.18-23.87l118.17-68.22c3.75-2.17,5.63-5,5.63-7.85Z" style="fill:#25FFEB"></path><path d="M381,283c0-2.84-1.88-5.68-5.63-7.85l-11.07-6.39c-7.51-4.34-19.68-4.34-27.19,0L218.93,336.94c-17,9.81-33.22,32.34-54.81,46.87s-38.69,26-38.69,26v6.95l5.46,3.29s19.94-9.94,45.11-22.41,64.18-14.06,81.18-23.87l118.17-68.22c3.75-2.17,5.63-5,5.63-7.85Z" style="fill:#fff;opacity:0.6000000000000001"></path><path d="M176,390.67c25.17-12.46,64.18-21.83,81.18-31.65L375.35,290.8c3.75-2.16,5.63-5,5.63-7.84s-1.88-5.68-5.63-7.85l-11.07-6.39c-7.51-4.34-19.68-4.34-27.19,0L218.93,336.94c-17,9.81-33.22,32.34-54.81,46.87s-38.69,26-38.69,26L131,413S150.83,403.14,176,390.67Z" style="fill:#25FFEB"></path><path d="M176,390.67c25.17-12.46,64.18-21.83,81.18-31.65L375.35,290.8c3.75-2.16,5.63-5,5.63-7.84s-1.88-5.68-5.63-7.85l-11.07-6.39c-7.51-4.34-19.68-4.34-27.19,0L218.93,336.94c-17,9.81-33.22,32.34-54.81,46.87s-38.69,26-38.69,26L131,413S150.83,403.14,176,390.67Z" style="fill:#fff;opacity:0.8"></path><path d="M345.44,307.48l-29.8,16.86-59.42,34a120.84,120.84,0,0,1-15.45,7c-5.31,2-10.68,3.93-16.07,5.8-10.77,3.75-21.62,7.33-32.25,11.58-5.3,2.14-10.6,4.32-15.73,6.9l-15.28,7.73C151.3,402.56,141.12,407.72,131,413c10.33-4.87,20.6-9.85,30.9-14.77l15.4-7.46c5.12-2.46,10.42-4.55,15.73-6.59,10.66-4,21.48-7.61,32.29-11.27,5.4-1.85,10.8-3.72,16.16-5.73a124.3,124.3,0,0,0,15.77-7L286.87,343c9.86-5.75,19.76-11.43,29.58-17.24L346,308.37c9.8-5.86,19.63-11.66,29.4-17.57C365.34,296.3,355.41,301.92,345.44,307.48Z" style="fill:#fff"></path><path d="M312.44,289.68a3.55,3.55,0,0,1,1.74.4l25.22,14.56c.34.2.41.37.41.4s-.07.2-.41.4l-46.47,26.83a3.55,3.55,0,0,1-1.74.4,3.59,3.59,0,0,1-1.75-.4l-25.22-14.56c-.34-.2-.41-.37-.41-.4s.07-.21.41-.4l46.47-26.83a3.59,3.59,0,0,1,1.75-.4m0-1.05a4.67,4.67,0,0,0-2.27.54L263.7,316c-1.25.72-1.25,1.89,0,2.62l25.22,14.56a5,5,0,0,0,4.53,0l46.47-26.83a1.38,1.38,0,0,0,0-2.62L314.7,289.17a4.61,4.61,0,0,0-2.26-.54Z" style="fill:#25FFEB"></path><path d="M325.7,300.13c0-1.33-.88-2.66-2.64-3.68a14.11,14.11,0,0,0-12.75,0c-1.76,1-2.64,2.35-2.64,3.68v2.46c0,1.33.88,2.66,2.64,3.68a14.11,14.11,0,0,0,12.75,0c1.76-1,2.64-2.35,2.64-3.68Z" style="fill:#25FFEB"></path><path d="M325.7,300.13c0-1.33-.88-2.66-2.64-3.68a14.11,14.11,0,0,0-12.75,0c-1.76,1-2.64,2.35-2.64,3.68v2.46c0,1.33.88,2.66,2.64,3.68a14.11,14.11,0,0,0,12.75,0c1.76-1,2.64-2.35,2.64-3.68Z" style="opacity:0.2"></path><path d="M310.31,296.45c-1.76,1-2.64,2.35-2.64,3.68s.88,2.67,2.64,3.68a14,14,0,0,0,12.75,0c1.76-1,2.64-2.35,2.64-3.68s-.88-2.66-2.64-3.68A14.11,14.11,0,0,0,310.31,296.45Z" style="fill:#25FFEB"></path><path d="M310.51,313.51l-22.22,12.83a3,3,0,0,1-2.71,0l-9.46-5.46,22.2-12.83a3,3,0,0,1,2.72,0Z" style="fill:#455a64"></path><path d="M311.08,313.19l-.57.32L301,308.05a3,3,0,0,0-2.72,0l-22.2,12.83-.57-.33c-.76-.43-.76-1.13,0-1.57l22.77-13.16a3.09,3.09,0,0,1,2.72,0l10,5.8A.83.83,0,0,1,311.08,313.19Z" style="fill:#25FFEB"></path><path d="M290,320.32l1.1.63c.53.31.71.66.53,1a2.87,2.87,0,0,1-1.23,1.14,5.53,5.53,0,0,1-1.95.7,2.78,2.78,0,0,1-1.78-.32l-.42-.25c-.15-.08-.09-.2.16-.35s.46-.18.61-.09l.53.3a1.37,1.37,0,0,0,1,.1,4.35,4.35,0,0,0,1.19-.49,2.53,2.53,0,0,0,.85-.7q.24-.34-.15-.57l-1.19-.69a1.63,1.63,0,0,0-.75-.26,1.93,1.93,0,0,0-.84.3l-1.66,1c-.13.08-.31.05-.54-.08s-.27-.23-.14-.31l1.36-.79v-.53a1,1,0,0,0-.52-.92l-.11-.07a2.16,2.16,0,0,0-.89-.31,1.39,1.39,0,0,0-.8.21l-2.24,1.3a.57.57,0,0,1-.54-.09c-.23-.13-.27-.23-.14-.31l2.24-1.29a3,3,0,0,1,1.57-.46,3.27,3.27,0,0,1,1.57.5l.16.1a1.56,1.56,0,0,1,.49.47,1.17,1.17,0,0,1,.21.65v.24a2.59,2.59,0,0,1,1.16-.19A3.08,3.08,0,0,1,290,320.32Z" style="fill:#f0f0f0"></path><path d="M292.55,320.1l-4.08-2.36c-.6-.34-.92-.66-1-.95s.23-.59.78-.91l2.44-1.41c.13-.08.31-.05.53.08s.28.24.15.31L289,316.27c-.28.16-.4.32-.36.47s.26.34.63.56l1.17.67,2-.86q.58-.24,1-.36a4.1,4.1,0,0,1,.82-.19,2.42,2.42,0,0,1,1.65.34l1.12.64c.53.31.7.65.53,1a3,3,0,0,1-1.23,1.14,5.38,5.38,0,0,1-1.95.69A2.63,2.63,0,0,1,292.55,320.1Zm.88-.39a1.3,1.3,0,0,0,1,.1,4.28,4.28,0,0,0,1.2-.49,2.53,2.53,0,0,0,.85-.7.35.35,0,0,0-.15-.57L295,317.3a1.22,1.22,0,0,0-.77-.13,4.27,4.27,0,0,0-1.11.35l-2,.86Z" style="fill:#f0f0f0"></path><path d="M299.45,316.67l.82.47c.15.09.1.21-.18.37a.67.67,0,0,1-.64.11l-.83-.48c-.15-.09-.09-.21.18-.37S299.29,316.58,299.45,316.67Z" style="fill:#f0f0f0"></path><path d="M297.56,313.81l-1.14-.66c-.6-.34-.91-.66-.95-.95s.23-.59.78-.91l2.25-1.3c.13-.08.3-.05.53.08s.28.24.15.31l-2.25,1.3c-.28.16-.4.32-.35.47s.25.34.62.56l1.18.68,1.9-.7a7.77,7.77,0,0,1,1.82-.55,2.46,2.46,0,0,1,1,.06,3.89,3.89,0,0,1,.62.28l1,.58c.53.31.71.66.53,1a2.81,2.81,0,0,1-1.23,1.14,5.55,5.55,0,0,1-1.94.7,2.69,2.69,0,0,1-1.78-.32l-.43-.25c-.15-.08-.09-.2.17-.35s.46-.18.61-.09l.52.3a1.32,1.32,0,0,0,1,.1,4.56,4.56,0,0,0,1.2-.48,2.65,2.65,0,0,0,.85-.71c.16-.23.1-.42-.15-.57l-1.19-.69a1.07,1.07,0,0,0-.73-.12,6.31,6.31,0,0,0-1.15.33l-2.28.85a1.41,1.41,0,0,1-.56.1A1.89,1.89,0,0,1,297.56,313.81Z" style="fill:#f0f0f0"></path><path d="M128.22,410a2.73,2.73,0,0,0-2.59-.29l-20.74,12-.24.14a5.81,5.81,0,0,0,2.9,10.85,5.74,5.74,0,0,0,2.41-.53h0l.27-.15,20.56-11.88,0,0a3.07,3.07,0,0,0,1.33-2.91A9.09,9.09,0,0,0,128.22,410Z" style="fill:#fafafa"></path><path d="M126.55,410.51a2.31,2.31,0,0,1,1.14.36,8,8,0,0,1,3.42,6.28c0,1-.28,1.73-.79,2l0,0h0l-20.56,11.88-.23.13a4.76,4.76,0,0,1-4.28-8.49l.22-.13,20.7-12a1.18,1.18,0,0,1,.43-.08m0-1.05a2,2,0,0,0-.92.21l-20.74,12-.24.14a5.81,5.81,0,0,0,2.9,10.85,5.74,5.74,0,0,0,2.41-.53l.27-.15,20.56-11.88,0,0a3.07,3.07,0,0,0,1.33-2.91,9.09,9.09,0,0,0-3.94-7.19,3.38,3.38,0,0,0-1.67-.5Z" style="fill:#e0e0e0"></path><path d="M130.83,420.06a3.07,3.07,0,0,0,1.33-2.91,7.85,7.85,0,0,0-.21-1.65c-4,2.24-15.37,8.61-20.25,11.38-6,3.38-9.36,2.51-9.86-1.16a5.84,5.84,0,0,0,5.71,6.92,5.74,5.74,0,0,0,2.41-.53l.27-.15,20.56-11.88Z" style="opacity:0.1"></path><path d="M381,283.22v14.46c0,2.84-1.87,5.67-5.63,7.85l-11.91,6.89V297.68l11.91-6.88C379,288.71,380.86,286,381,283.22Z" style="fill:#25FFEB"></path><path d="M381,283.22v14.46c0,2.84-1.87,5.67-5.63,7.85l-11.91,6.89V297.68l11.91-6.88C379,288.71,380.86,286,381,283.22Z" style="opacity:0.2"></path><path d="M363.42,297.69l11.93-6.89c7.5-4.33,7.5-11.36,0-15.69l-11.07-6.39c-7.51-4.34-19.68-4.34-27.19,0l-11.91,6.88Z" style="fill:#25FFEB"></path><path d="M359.45,289.87,338.2,277.6a.53.53,0,0,0-.72.19.52.52,0,0,0,.19.71l21.26,12.27a.48.48,0,0,0,.26.07.52.52,0,0,0,.26-1ZM346.17,278.5l12.76,7.36a.48.48,0,0,0,.26.07.52.52,0,0,0,.26-1L346.7,277.6a.53.53,0,0,0-.72.19A.52.52,0,0,0,346.17,278.5Z" style="opacity:0.2"></path></g></g><g id="freepik--thermometer-1--inject-4"><g id="freepik--infrared-thermometer--inject-4"><path d="M95.25,266.4c-.56-18.61-3.62-31.14-8.38-39.56.89,3.73-4.08,19-6.57,26.25a5,5,0,0,0,2.24,6Z" style="fill:#25FFEB"></path><path d="M95.25,266.4c-.56-18.61-3.62-31.14-8.38-39.56.89,3.73-4.08,19-6.57,26.25a5,5,0,0,0,2.24,6Z" style="fill:#fff;opacity:0.30000000000000004"></path><path d="M165.94,118.85c-7.14-4.12-61.77-24.39-86.17-33.37a26.59,26.59,0,0,0-22.49,1.93l-12.18,7A30.21,30.21,0,0,0,30,120.6v30a17.54,17.54,0,0,0,7,14.08c17.56,13.1,34.45,29.74,41.9,42.05,7.31,12.1,10.87,27.43,14.1,62.4,2.46,26.67,5.53,63,6.91,79.47a16.93,16.93,0,0,0,8.41,13.25l21.92,12.66a17,17,0,0,0,16.94,0l21.15-12.21a16.94,16.94,0,0,0,8.47-14.57C177.21,270.06,181.6,200.24,165.94,118.85Z" style="fill:#25FFEB"></path><path d="M116.32,366.47a12.06,12.06,0,0,1-6.45-10c-.23-4.84-6.3-85.26-9.18-105.76-2.79-19.81-5.27-21.85-14.7-27.32,3,10.44,5.08,24.45,7.05,45.77,2.46,26.67,5.53,63,6.91,79.47a16.93,16.93,0,0,0,8.41,13.25l8,4.6Z" style="fill:#455a64"></path><path d="M79.77,85.48a26.59,26.59,0,0,0-22.49,1.93l-12.18,7A30.21,30.21,0,0,0,30,120.6v30a17.54,17.54,0,0,0,7,14.08c3.35,2.49,6.66,5.12,9.89,7.81a20.59,20.59,0,0,1-6-14.57V124.12a25.38,25.38,0,0,1,12.72-22L74.82,89.94a16.39,16.39,0,0,1,13.87-1.17l1.36.5Z" style="opacity:0.2"></path><path d="M192.64,156.92l-1.14-18.68a8.35,8.35,0,0,0-3.88-6.87c-1.52-.87-19.56-11.27-21.68-12.52a6.55,6.55,0,0,0-5.34-.55q-28.68,8.92-56.2,32.9c-3.64,3.18-6.19,10.23-5.82,15.58.26,3.83.31,4.59.29,4.2.17,2.59.48,7,1,14.4,2.48,36.38,12.94,62.94,26,70.54,3.65,2.13,18.16,10.51,21.91,12.66a14.72,14.72,0,0,0,15.53-.16C182.83,257.12,196,207.2,192.64,156.92Z" style="fill:#455a64"></path><path d="M120.33,179.34c1,15-1.16-16.92,1.27,18.6,3.42,50.23,22.07,81.79,41.65,70.48S196,207.2,192.64,156.92l-1.14-18.68c-.36-5.35-4.51-8.83-9.15-7.38q-28.68,8.92-56.2,32.9C122.51,166.94,120,174,120.33,179.34Z" style="fill:#25FFEB"></path><path d="M120.33,179.34c1,15-1.16-16.92,1.27,18.6,3.42,50.23,22.07,81.79,41.65,70.48S196,207.2,192.64,156.92l-1.14-18.68c-.36-5.35-4.51-8.83-9.15-7.38q-28.68,8.92-56.2,32.9C122.51,166.94,120,174,120.33,179.34Z" style="fill:#fff;opacity:0.6000000000000001"></path><path d="M175.68,199.9,143,218.77c-2.39,1.37-4.49,0-4.7-3.05l-2.92-42.85c-.21-3.07,1.55-6.67,3.94-8L172,146c2.38-1.38,4.49,0,4.7,3l2.92,42.85C179.84,194.92,178.07,198.52,175.68,199.9Z" style="fill:#25FFEB"></path><polygon points="142.92 212.64 140.05 170.59 172.1 152.09 174.97 194.13 142.92 212.64" style="fill:#455a64"></polygon><path d="M150.68,188.65l.14,2.07a4.08,4.08,0,0,1-.78,2.74,7.29,7.29,0,0,1-2.31,2,3.65,3.65,0,0,1-2.37.65q-.95-.18-1.05-1.68l-.06-.8q0-.42.54-.75t.6.09l.07,1c0,.5.26.75.67.75a3.37,3.37,0,0,0,1.51-.54,5.24,5.24,0,0,0,1.5-1.22,2,2,0,0,0,.55-1.43l-.15-2.26c0-.56-.14-.89-.3-1s-.5,0-1,.29L145.77,190c-.2.11-.31,0-.34-.48s.06-.69.25-.8l2-1.17.61-1.26a5.27,5.27,0,0,0,.66-2.47l0-.21a2,2,0,0,0-.34-1.21c-.18-.18-.48-.15-.89.09l-3.3,1.91c-.2.11-.31,0-.34-.47s.06-.7.25-.81l3.31-1.91c.81-.47,1.41-.57,1.79-.28a2.84,2.84,0,0,1,.66,2l0,.31a4.69,4.69,0,0,1-.16,1.38,8,8,0,0,1-.58,1.64l-.28.58a1,1,0,0,1,1.14.15A2.91,2.91,0,0,1,150.68,188.65Z" style="fill:#f0f0f0"></path><path d="M153,189.46l-.52-7.7a5.84,5.84,0,0,1,.34-2.75,3.87,3.87,0,0,1,1.69-1.77l3.59-2.07c.19-.11.3.05.33.47s-.05.7-.24.81l-3.59,2.08a1.8,1.8,0,0,0-.84.93,4.13,4.13,0,0,0-.14,1.64l.15,2.21,2.61-1a11.14,11.14,0,0,1,1.19-.37,2,2,0,0,1,.87,0c.56.07.87.63.94,1.67l.14,2.1a4,4,0,0,1-.79,2.73,7.39,7.39,0,0,1-2.3,2.06,3.66,3.66,0,0,1-2.37.64C153.42,191,153.07,190.47,153,189.46Zm1.16-.47c0,.5.25.75.66.74a3.18,3.18,0,0,0,1.52-.52,5.75,5.75,0,0,0,1.5-1.23,2,2,0,0,0,.55-1.44l-.17-2.43c0-.41-.18-.66-.46-.71a2.55,2.55,0,0,0-1.29.24l-2.61,1Z" style="fill:#f0f0f0"></path><path d="M162.52,184.9l.1,1.56c0,.29-.17.55-.57.79s-.62.19-.64-.1l-.11-1.55c0-.29.18-.56.58-.79S162.5,184.61,162.52,184.9Z" style="fill:#f0f0f0"></path><path d="M164.33,177.14l-.15-2.14a6,6,0,0,1,.35-2.75,3.82,3.82,0,0,1,1.69-1.77l3.31-1.91c.19-.11.29.05.32.48s0,.7-.24.81l-3.31,1.91a1.82,1.82,0,0,0-.83.93,4,4,0,0,0-.15,1.64l.15,2.23,2.34-.67a4.45,4.45,0,0,1,2.1-.36,1,1,0,0,1,.72.67,4.07,4.07,0,0,1,.18,1l.13,1.91a4.13,4.13,0,0,1-.79,2.74,7.28,7.28,0,0,1-2.3,2.06,3.66,3.66,0,0,1-2.37.64c-.64-.11-1-.67-1.06-1.67l0-.81c0-.28.16-.53.54-.74s.58-.2.6.08l.07,1q0,.77.66.75a3.3,3.3,0,0,0,1.52-.52,5.75,5.75,0,0,0,1.5-1.23,2,2,0,0,0,.55-1.44l-.16-2.25c0-.4-.17-.63-.43-.67a3.21,3.21,0,0,0-1.31.2l-2.81.82c-.27.08-.46.06-.56-.05A1.6,1.6,0,0,1,164.33,177.14Z" style="fill:#f0f0f0"></path><path d="M172.72,246.67c-.17-2.45-1.12-4.19-2.52-5l-4.07-2.36a4.61,4.61,0,0,0-4.72.31c-3.68,2.13-6.4,7.68-6.08,12.4.17,2.48,1.14,4.23,2.56,5,.68.39,3.35,1.95,4.06,2.35a4.6,4.6,0,0,0,4.68-.33C170.32,256.94,173,251.39,172.72,246.67Z" style="fill:#25FFEB"></path><path d="M172.72,246.67c-.17-2.45-1.12-4.19-2.52-5l-4.07-2.36a4.61,4.61,0,0,0-4.72.31c-3.68,2.13-6.4,7.68-6.08,12.4.17,2.48,1.14,4.23,2.56,5,.68.39,3.35,1.95,4.06,2.35a4.6,4.6,0,0,0,4.68-.33C170.32,256.94,173,251.39,172.72,246.67Z" style="fill:#fff;opacity:0.2"></path><path d="M172.72,246.67c.32,4.72-2.4,10.27-6.09,12.4s-6.92,0-7.25-4.71,2.41-10.27,6.09-12.4S172.39,241.94,172.72,246.67Z" style="fill:#fff;opacity:0.2"></path><path d="M185.37,219l-.67-9.81-4.06-2.34-10.94,6.31.88,13,4.06,2.34A107,107,0,0,0,185.37,219Z" style="fill:#25FFEB"></path><path d="M185.37,219l-.67-9.81-4.06-2.34-10.94,6.31.88,13,4.06,2.34A107,107,0,0,0,185.37,219Z" style="opacity:0.2"></path><polygon points="169.7 213.12 173.75 215.46 174.64 228.42 170.58 226.08 169.7 213.12" style="opacity:0.2"></polygon><path d="M184.7,209.15l.67,9.81a107,107,0,0,1-10.73,9.46l-.89-13Z" style="fill:#25FFEB"></path><path d="M172.31,230.16l-.91-13.34-4.05-2.34-14.42,8.33.9,13.32,4.06,2.34A76.34,76.34,0,0,0,172.31,230.16Z" style="fill:#25FFEB"></path><path d="M172.31,230.16l-.91-13.34-4.05-2.34-14.42,8.33.9,13.32,4.06,2.34A76.34,76.34,0,0,0,172.31,230.16Z" style="opacity:0.2"></path><polygon points="156.98 225.15 152.93 222.81 153.83 236.13 157.89 238.47 156.98 225.15" style="opacity:0.2"></polygon><path d="M157,225.15l14.42-8.33.91,13.34a76.34,76.34,0,0,1-14.42,8.31Z" style="fill:#25FFEB"></path><path d="M155.51,239.46l-.88-13-4.06-2.34-10.94,6.32.67,9.81,4,2.34A61,61,0,0,0,155.51,239.46Z" style="fill:#25FFEB"></path><polyline points="143.68 232.83 139.63 230.49 140.3 240.3 144.35 242.64 143.68 232.83" style="opacity:0.2"></polyline><path d="M155.51,239.46l-.88-13-4.06-2.34-10.94,6.32.67,9.81,4,2.34A61,61,0,0,0,155.51,239.46Z" style="opacity:0.2"></path><path d="M143.68,232.83l10.95-6.32.88,13a61,61,0,0,1-11.16,3.18Z" style="fill:#25FFEB"></path><path d="M138.29,368.18l-7.6-109.43,7.43,4.31S121.16,250,117,206c-2.8-29.58-5.44-36.88-10.25-42.18-3.81-4.19-52.92-41.57-73.35-57.07A30.15,30.15,0,0,0,30,120.6v30a17.54,17.54,0,0,0,7,14.08c17.56,13.1,34.45,29.74,41.9,42.05,7.31,12.1,10.87,27.43,14.1,62.4,2.46,26.67,5.53,63,6.91,79.47a16.93,16.93,0,0,0,8.41,13.25l21.92,12.66a17,17,0,0,0,16.94,0A7.09,7.09,0,0,1,138.29,368.18Z" style="opacity:0.2"></path></g></g><g id="freepik--speech-bubble--inject-4"><g id="freepik--speech-bubble--inject-4"><g id="freepik--speech-bubble--inject-4"><path d="M255.94,273.37,251,264l4-11.58v-7.09l-12.28,7.09v7.09l5.28,9.15a.82.82,0,0,0,.35.32h0Z" style="fill:#25FFEB"></path><path d="M255.94,273.37,251,264l4-11.58v-7.09l-12.28,7.09v7.09l5.28,9.15a.82.82,0,0,0,.35.32h0Z" style="opacity:0.2"></path><path d="M256.35,273a.27.27,0,0,1-.25-.15l-5.52-9.56-15.22,8.8a5.6,5.6,0,0,1-.55.27h0a2.52,2.52,0,0,1-.85.17,1.32,1.32,0,0,1-1.08-.5,2.56,2.56,0,0,1-.46-1.62v-50.6a6.66,6.66,0,0,1,.8-3l.23-.4a6.84,6.84,0,0,1,2.4-2.56l46-26.6a2.87,2.87,0,0,1,1.4-.44,1.44,1.44,0,0,1,1.42,1.22h0a5,5,0,0,1,.08.93v50.59a7.55,7.55,0,0,1-3.43,5.94l-19.09,11.07-5.63,16.24A.28.28,0,0,1,256.35,273Z" style="fill:#fafafa"></path><path d="M283.25,187.31c.17,0,.71,0,.94.85h0a5.35,5.35,0,0,1,.06.79v50.59a7.13,7.13,0,0,1-3.18,5.51l-18.93,11-.32.19-.12.35L256.3,272.2l-5-8.73-.5-.87-.87.5-14.77,8.54a4.44,4.44,0,0,1-.49.24h0a2,2,0,0,1-.67.14c-.9,0-1-1-1-1.62v-50.6a6.24,6.24,0,0,1,.66-2.59l.31-.55a6.28,6.28,0,0,1,2.21-2.37l46-26.6a2.44,2.44,0,0,1,1.15-.37m0-1a3.29,3.29,0,0,0-1.65.51l-46,26.6a7.25,7.25,0,0,0-2.59,2.75h0a7.52,7.52,0,0,0-1.08,3.63v50.6c0,1.66.83,2.62,2,2.62a3,3,0,0,0,1-.2,7.63,7.63,0,0,1-.72.26,5.79,5.79,0,0,0,1.35-.55L250.39,264l5.27,9.13a.8.8,0,0,0,.69.39.79.79,0,0,0,.74-.53l5.57-16.07,18.93-11a8.14,8.14,0,0,0,3.68-6.38V189a6.17,6.17,0,0,0-.29-1.82,7.08,7.08,0,0,1,.17.77,1.94,1.94,0,0,0-1.9-1.59Z" style="fill:#25FFEB"></path><path d="M285.15,187.9c-.43-1.56-1.85-2.06-3.55-1.08l-46,26.6a7.25,7.25,0,0,0-2.59,2.75h0a7.52,7.52,0,0,0-1.08,3.63v50.6c0,2.1,1.32,3.08,3.06,2.42a7.63,7.63,0,0,1-.72.26c-.25.07-.5.13-.76.18a8.82,8.82,0,0,1-2.46.1,6.49,6.49,0,0,1-.77-.11,4.74,4.74,0,0,1-.65-.16,5.47,5.47,0,0,1-1.38-.56l-3-1.74a8.14,8.14,0,0,1-3.68-6.37v-50.6a7.52,7.52,0,0,1,1.08-3.63,8.2,8.2,0,0,1,1.18-1.59l.33-.33.35-.31a5.46,5.46,0,0,1,.6-.42,1.21,1.21,0,0,1,.14-.1l29.14-16.84,16.84-9.75a.61.61,0,0,1,.14-.07,6,6,0,0,1,1.59-.59,8.7,8.7,0,0,1,1.46-.21h1a8.7,8.7,0,0,1,1.46.21,5.91,5.91,0,0,1,1.72.66l3,1.73a6.41,6.41,0,0,1,1.08.82c.11.11.23.22.34.34a8.79,8.79,0,0,1,.91,1.16,9.34,9.34,0,0,1,.5.87,8.91,8.91,0,0,1,.55,1.37A7.08,7.08,0,0,1,285.15,187.9Z" style="fill:#25FFEB"></path><path d="M235,272.81a7.63,7.63,0,0,1-.72.26c-.25.07-.5.13-.76.18a9.2,9.2,0,0,1-2.46.1,6.49,6.49,0,0,1-.77-.11,4.74,4.74,0,0,1-.65-.16,5.47,5.47,0,0,1-1.38-.56l-3-1.74a8.14,8.14,0,0,1-3.68-6.37v-50.6a7.52,7.52,0,0,1,1.08-3.63h0l10.35,6a7.52,7.52,0,0,0-1.08,3.63v50.6C231.92,272.49,233.24,273.47,235,272.81Z" style="opacity:0.2"></path><path d="M285.15,187.9c-.43-1.56-1.85-2.06-3.55-1.08l-46,26.6a7.25,7.25,0,0,0-2.59,2.75h0l-10.35-6a8.23,8.23,0,0,1,1.17-1.6l.33-.33.35-.31a5.75,5.75,0,0,1,.74-.51l29.14-16.85,16.84-9.75a.61.61,0,0,1,.14-.07,6.53,6.53,0,0,1,1.59-.59,8.7,8.7,0,0,1,1.46-.21h1a8.7,8.7,0,0,1,1.46.21,6.54,6.54,0,0,1,1.72.66l3,1.73a5.81,5.81,0,0,1,1.08.82c.11.11.23.22.34.34a7.39,7.39,0,0,1,.91,1.16,9.34,9.34,0,0,1,.5.87,8.91,8.91,0,0,1,.55,1.37A7.08,7.08,0,0,1,285.15,187.9Z" style="fill:#fff;opacity:0.30000000000000004"></path></g><path d="M249.75,232.28c0,.43-.05,1-.06,1.76s0,1.5,0,2.29,0,1.54,0,2.28,0,1.32.06,1.72a8.36,8.36,0,0,0,.32,1.92,2.66,2.66,0,0,0,.79,1.32,1.94,1.94,0,0,0,1.36.43,4.5,4.5,0,0,0,2.05-.73,8.44,8.44,0,0,0,2-1.54,10,10,0,0,0,1.3-1.68,8.56,8.56,0,0,0,.77-1.67,13.66,13.66,0,0,0,.41-1.48,5.42,5.42,0,0,1,.4-1.31,2,2,0,0,1,.82-.79l4.71-2.71a.46.46,0,0,1,.56,0,.71.71,0,0,1,.23.6,17.06,17.06,0,0,1-.9,5.12,23.1,23.1,0,0,1-2.37,5.1,25.82,25.82,0,0,1-3.54,4.56,20,20,0,0,1-4.4,3.48,11,11,0,0,1-4.61,1.63,5.41,5.41,0,0,1-3.47-.8A6,6,0,0,1,244,248.9a13.62,13.62,0,0,1-.88-4.49c0-1.28-.07-2.67-.07-4.18s0-2.95.07-4.35a23.08,23.08,0,0,1,.86-5.5,26,26,0,0,1,2.21-5.42,23.83,23.83,0,0,1,3.47-4.8,19.68,19.68,0,0,1,4.63-3.71,11.72,11.72,0,0,1,4.4-1.6,6.34,6.34,0,0,1,3.54.47,5.06,5.06,0,0,1,2.37,2.36,9,9,0,0,1,.9,4.08,2,2,0,0,1-.23.88,1.46,1.46,0,0,1-.56.63L260,226c-.4.24-.68.29-.82.17a1.8,1.8,0,0,1-.4-.85,5,5,0,0,0-.41-1,1.87,1.87,0,0,0-.77-.78,2.38,2.38,0,0,0-1.3-.18,5.41,5.41,0,0,0-2,.78,8.42,8.42,0,0,0-2.05,1.63,9.45,9.45,0,0,0-2.15,4.24A14,14,0,0,0,249.75,232.28Z" style="fill:#455a64"></path><path d="M273,205.89a5.55,5.55,0,0,1,1.78-.69,2.69,2.69,0,0,1,1.58.11,2.5,2.5,0,0,1,1.15,1,4.32,4.32,0,0,1,.52,2c0,.24,0,.67,0,1.27s0,1.05,0,1.32a9.37,9.37,0,0,1-.49,2.55,10.1,10.1,0,0,1-1.11,2.32,10.86,10.86,0,0,1-1.58,1.94,10.42,10.42,0,0,1-1.85,1.41,6.39,6.39,0,0,1-1.85.73,2.6,2.6,0,0,1-1.58-.12,2.27,2.27,0,0,1-1.13-1,4.14,4.14,0,0,1-.47-2,12.32,12.32,0,0,1,0-1.27c0-.61,0-1,0-1.31a7.87,7.87,0,0,1,.5-2.57,12.27,12.27,0,0,1,1.17-2.35,10.06,10.06,0,0,1,1.58-1.94A9.26,9.26,0,0,1,273,205.89Zm0,3.64a1.76,1.76,0,0,0-.72.82A4.84,4.84,0,0,0,272,212a10.47,10.47,0,0,0,0,1.08,9.08,9.08,0,0,0,0,1c0,.77.15,1.23.32,1.37s.41.13.72-.05a1.82,1.82,0,0,0,.72-.78A5.08,5.08,0,0,0,274,213c0-.27,0-.63,0-1.08s0-.79,0-1a2.48,2.48,0,0,0-.32-1.32C273.54,209.35,273.3,209.35,273,209.53Z" style="fill:#455a64"></path></g><g id="freepik--speech-bubble--inject-4"><g id="freepik--speech-bubble--inject-4"><path d="M337.18,226.47l-5-9.38,4-11.59v-7.09l-12.28,7.09v7.1l5.28,9.14a.7.7,0,0,0,.36.32h0Z" style="fill:#25FFEB"></path><path d="M337.18,226.47l-5-9.38,4-11.59v-7.09l-12.28,7.09v7.1l5.28,9.14a.7.7,0,0,0,.36.32h0Z" style="opacity:0.2"></path><path d="M337.59,226.08a.28.28,0,0,1-.25-.14l-5.52-9.56-15.22,8.8a4.68,4.68,0,0,1-.55.27v0a2.32,2.32,0,0,1-.85.18,1.31,1.31,0,0,1-1.08-.51,2.56,2.56,0,0,1-.46-1.62v-50.6a6.66,6.66,0,0,1,.8-3l.23-.4a6.7,6.7,0,0,1,2.4-2.56l46-26.61a3,3,0,0,1,1.4-.43,1.44,1.44,0,0,1,1.42,1.21h0a4.91,4.91,0,0,1,.08.92v50.59a7.57,7.57,0,0,1-3.43,6l-19.09,11.06-5.63,16.25A.27.27,0,0,1,337.59,226.08Z" style="fill:#fafafa"></path><path d="M364.49,140.41c.17,0,.71,0,.94.85h0a5.46,5.46,0,0,1,.06.79v50.59a7.14,7.14,0,0,1-3.18,5.52l-18.93,11-.32.18-.12.35-5.42,15.64-5-8.73-.5-.87-.87.51-14.76,8.54c-.16.09-.33.17-.49.24h0a2,2,0,0,1-.67.14c-.9,0-1-1-1-1.63v-50.6a6.24,6.24,0,0,1,.66-2.58l.31-.55a6.15,6.15,0,0,1,2.22-2.37l46-26.6a2.44,2.44,0,0,1,1.15-.37m0-1a3.38,3.38,0,0,0-1.65.5l-46,26.6a7.25,7.25,0,0,0-2.59,2.75h0a7.52,7.52,0,0,0-1.08,3.63v50.6c0,1.66.83,2.63,2,2.63a2.82,2.82,0,0,0,1-.21,7.63,7.63,0,0,1-.72.26,5.79,5.79,0,0,0,1.35-.55l14.78-8.55,5.27,9.13a.79.79,0,0,0,1.43-.14L343.9,210l18.93-11a8.14,8.14,0,0,0,3.68-6.38V142a6.17,6.17,0,0,0-.29-1.82,7.08,7.08,0,0,1,.17.77,1.93,1.93,0,0,0-1.9-1.58Z" style="fill:#25FFEB"></path><path d="M366.39,141c-.43-1.56-1.85-2.06-3.55-1.08l-46,26.6a7.25,7.25,0,0,0-2.59,2.75h0a7.52,7.52,0,0,0-1.08,3.63v50.6c0,2.1,1.32,3.08,3.06,2.42a7.63,7.63,0,0,1-.72.26c-.25.07-.5.13-.76.18a8.82,8.82,0,0,1-2.46.1,6.49,6.49,0,0,1-.77-.11,4.74,4.74,0,0,1-.65-.16,5.47,5.47,0,0,1-1.38-.56l-3-1.74a8.14,8.14,0,0,1-3.68-6.37V166.9a7.52,7.52,0,0,1,1.08-3.63,8.2,8.2,0,0,1,1.18-1.59c.11-.11.22-.23.33-.33l.35-.31q.3-.22.6-.42l.14-.1,29.14-16.84,16.84-9.75.14-.07a6,6,0,0,1,1.59-.59,8.7,8.7,0,0,1,1.46-.21h1a8.7,8.7,0,0,1,1.46.21,5.91,5.91,0,0,1,1.72.66l3,1.73a6.41,6.41,0,0,1,1.08.82l.34.34a8.79,8.79,0,0,1,.91,1.16,9.34,9.34,0,0,1,.5.87,8.91,8.91,0,0,1,.55,1.37A7.08,7.08,0,0,1,366.39,141Z" style="fill:#25FFEB"></path><path d="M316.22,225.9a7.63,7.63,0,0,1-.72.26c-.25.07-.5.13-.76.18a9.2,9.2,0,0,1-2.46.1,6.49,6.49,0,0,1-.77-.11,4.74,4.74,0,0,1-.65-.16,5.47,5.47,0,0,1-1.38-.56l-3-1.74a8.14,8.14,0,0,1-3.68-6.37V166.9a7.52,7.52,0,0,1,1.08-3.63h0l10.35,6a7.52,7.52,0,0,0-1.08,3.63v50.6C313.16,225.58,314.48,226.56,316.22,225.9Z" style="opacity:0.2"></path><path d="M366.39,141c-.43-1.56-1.85-2.06-3.55-1.08l-46,26.6a7.25,7.25,0,0,0-2.59,2.75h0l-10.35-6a8.23,8.23,0,0,1,1.17-1.6c.11-.11.22-.23.33-.33l.35-.31a5.75,5.75,0,0,1,.74-.51l29.14-16.85,16.84-9.75.14-.07a6.53,6.53,0,0,1,1.59-.59,8.7,8.7,0,0,1,1.46-.21h1a8.7,8.7,0,0,1,1.46.21,6.54,6.54,0,0,1,1.72.66l3,1.73a5.81,5.81,0,0,1,1.08.82l.34.34a7.39,7.39,0,0,1,.91,1.16,9.34,9.34,0,0,1,.5.87,8.91,8.91,0,0,1,.55,1.37A7.08,7.08,0,0,1,366.39,141Z" style="fill:#fff;opacity:0.30000000000000004"></path></g><path d="M344.12,165.06a.58.58,0,0,1,.68,0,.87.87,0,0,1,.29.74v5.08a2.37,2.37,0,0,1-.29,1.08,1.86,1.86,0,0,1-.68.77l-10.74,6.2v6.57l10-5.79a.57.57,0,0,1,.68,0,.88.88,0,0,1,.29.74v5.08a2.37,2.37,0,0,1-.29,1.08,1.86,1.86,0,0,1-.68.77l-10,5.79v10.34a2.33,2.33,0,0,1-.29,1.08,1.83,1.83,0,0,1-.68.78l-4.71,2.71a.57.57,0,0,1-.68,0,.9.9,0,0,1-.29-.75V176.39a2.3,2.3,0,0,1,.29-1.07,1.83,1.83,0,0,1,.68-.78Z" style="fill:#455a64"></path><path d="M352.7,159.86a6.06,6.06,0,0,1,1.78-.69,2.77,2.77,0,0,1,1.58.12,2.43,2.43,0,0,1,1.15,1,4.24,4.24,0,0,1,.52,2c0,.24,0,.66,0,1.27s0,1,0,1.31a9.83,9.83,0,0,1-.48,2.56,10.78,10.78,0,0,1-1.12,2.32,10.06,10.06,0,0,1-1.58,1.94,9.29,9.29,0,0,1-1.85,1.4,6,6,0,0,1-1.85.74,2.77,2.77,0,0,1-1.58-.12,2.41,2.41,0,0,1-1.13-1,4.25,4.25,0,0,1-.47-2c0-.24,0-.66,0-1.27s0-1.05,0-1.32a7.83,7.83,0,0,1,.51-2.56,12.84,12.84,0,0,1,1.16-2.35,10.86,10.86,0,0,1,1.58-1.94A9.77,9.77,0,0,1,352.7,159.86Zm0,3.64a1.79,1.79,0,0,0-.72.83,5.3,5.3,0,0,0-.32,1.69c0,.27,0,.63,0,1.08s0,.79,0,1a2.43,2.43,0,0,0,.32,1.37q.25.21.72-.06a1.79,1.79,0,0,0,.72-.77,4.73,4.73,0,0,0,.32-1.74,10.47,10.47,0,0,0,0-1.08,9.2,9.2,0,0,0,0-1,2.3,2.3,0,0,0-.32-1.32Q353.17,163.23,352.7,163.5Z" style="fill:#455a64"></path></g></g><g id="freepik--icons-1--inject-4"><g id="freepik--heat-icon--inject-4"><path d="M454.72,118.38l-29-16.72a10,10,0,0,0-9,0l-.52.31a9.94,9.94,0,0,0-4.5,7.78v33.44a9.94,9.94,0,0,0,4.5,7.78l28.95,16.72a10,10,0,0,0,9,0l.52-.31a9.93,9.93,0,0,0,4.49-7.78V126.16A9.93,9.93,0,0,0,454.72,118.38Z" style="fill:#25FFEB"></path><path d="M454.72,118.38l-29-16.72a10,10,0,0,0-9,0l-.52.31a9.94,9.94,0,0,0-4.5,7.78v33.44a9.94,9.94,0,0,0,4.5,7.78l28.95,16.72a10,10,0,0,0,9,0l.52-.31a9.93,9.93,0,0,0,4.49-7.78V126.16A9.93,9.93,0,0,0,454.72,118.38Z" style="fill:#fff;opacity:0.7000000000000001"></path><path d="M445.21,123.88l-28.95-16.72c-2.48-1.43-4.5-.27-4.5,2.59v33.44a9.94,9.94,0,0,0,4.5,7.78l28.95,16.72c2.48,1.43,4.5.27,4.5-2.6V131.66A9.93,9.93,0,0,0,445.21,123.88Z" style="fill:#25FFEB"></path><path d="M445.21,123.88l-28.95-16.72c-2.48-1.43-4.5-.27-4.5,2.59v33.44a9.94,9.94,0,0,0,4.5,7.78l28.95,16.72c2.48,1.43,4.5.27,4.5-2.6V131.66A9.93,9.93,0,0,0,445.21,123.88Z" style="fill:#fff;opacity:0.55"></path><path d="M459.21,159.6a9.93,9.93,0,0,1-4.49,7.78l-.52.31a10.09,10.09,0,0,1-8.22.36c2.11.8,3.73-.4,3.73-3V131.66a9.24,9.24,0,0,0-1.32-4.43l9.51-5.5a9.23,9.23,0,0,1,1.31,4.43Z" style="fill:#25FFEB"></path><path d="M459.21,159.6a9.93,9.93,0,0,1-4.49,7.78l-.52.31a10.09,10.09,0,0,1-8.22.36c2.11.8,3.73-.4,3.73-3V131.66a9.24,9.24,0,0,0-1.32-4.43l9.51-5.5a9.23,9.23,0,0,1,1.31,4.43Z" style="fill:#fff;opacity:0.4"></path><path d="M418,139.87c.27.79.88,1.35,1.35,1.26s.54-.5.48-1l1.47-.28-.47,2.2a.89.89,0,0,0,.26.74l.09.07a.22.22,0,0,0,.36-.16l.64-3,1.38-.26-.77,3.63a.86.86,0,0,0,.26.74l.09.07a.22.22,0,0,0,.35-.16l1-4.46,1-.18,4.95,6.66v1.51l-2.77,2c-.15.11-.15.41,0,.69a.78.78,0,0,0,.26.3.25.25,0,0,0,.26,0l2.26-1.64v2.13L428.49,152c-.14.1-.15.41,0,.68a.8.8,0,0,0,.27.3.23.23,0,0,0,.25,0l1.37-1v2.26c-.36,0-.62.31-.62.86a2.38,2.38,0,0,0,1,1.89c.55.31,1,0,1-.75a2.54,2.54,0,0,0-.62-1.58v-2.26l1.37,2.57a.81.81,0,0,0,.25.29.26.26,0,0,0,.27,0c.14-.11.13-.42,0-.69l-1.88-3.53V149l2.26,4.24a.83.83,0,0,0,.26.29.22.22,0,0,0,.26,0c.14-.11.14-.42,0-.69l-2.77-5.2v-1.51l4.95-1,1,1.32,1,5.55a.88.88,0,0,0,.35.57l.09,0c.19,0,.31-.15.26-.44l-.77-4.53,1.38,1.86.64,3.76a.83.83,0,0,0,.36.57l.08,0c.2,0,.32-.15.27-.44l-.47-2.74,1.47,2a2.4,2.4,0,0,0,.48,1.6c.47.63,1.07.77,1.35.29a2.08,2.08,0,0,0-.36-2c-.36-.48-.8-.67-1.11-.53l-1.47-2,1.84.37c.2,0,.31-.16.26-.45a.78.78,0,0,0-.45-.6l-2.53-.51L438.27,147l3,.61c.2,0,.31-.16.25-.45a.74.74,0,0,0-.45-.6l-3.72-.75-1-1.31v-7.62l1-.18,3.72,3.55.1.07a.22.22,0,0,0,.35-.15.82.82,0,0,0-.25-.74l-3-2.91,1.38-.26,2.53,2.41.09.07a.22.22,0,0,0,.36-.15.89.89,0,0,0-.26-.75l-1.84-1.75,1.47-.28c.31.5.75.81,1.11.74s.63-.8.36-1.59-.88-1.35-1.35-1.26-.54.5-.48,1l-1.47.28.47-2.19a.88.88,0,0,0-.27-.75c-.19-.18-.39-.14-.44.1l-.64,3-1.38.26.77-3.63a.91.91,0,0,0-.26-.75c-.2-.18-.39-.13-.44.1l-1,4.45-1,.19-4.95-6.67v-1.5l2.77-2c.15-.1.15-.41,0-.68s-.37-.42-.52-.31l-2.26,1.63v-2.12l1.88-1.36c.14-.1.15-.41,0-.68s-.38-.41-.52-.31l-1.37,1v-2.27c.36,0,.62-.31.62-.86a2.34,2.34,0,0,0-1-1.88c-.54-.31-1,0-1,.75a2.51,2.51,0,0,0,.62,1.57v2.27L429,119.84c-.14-.27-.38-.4-.52-.29s-.13.42,0,.69l1.88,3.53v2.12l-2.26-4.25c-.15-.27-.38-.39-.52-.28s-.14.42,0,.69l2.77,5.2v1.5l-4.95.95-1-1.31-1-5.55a.76.76,0,0,0-.44-.61c-.2,0-.31.15-.26.44l.77,4.53-1.38-1.86-.64-3.76a.77.77,0,0,0-.45-.61c-.19,0-.31.15-.26.44l.47,2.74-1.47-2a2.38,2.38,0,0,0-.48-1.6c-.47-.64-1.08-.77-1.35-.3a2.08,2.08,0,0,0,.36,2c.36.49.8.68,1.1.53l1.48,2-1.84-.37c-.2,0-.31.17-.26.46a.9.9,0,0,0,.35.56l.1,0,2.53.51,1.38,1.86-3-.61c-.2,0-.31.16-.25.45a.81.81,0,0,0,.35.56.18.18,0,0,0,.1,0l3.72.75,1,1.32V138l-1,.19-3.72-3.55c-.2-.19-.4-.15-.45.08a.83.83,0,0,0,.25.74l3,2.9-1.38.27-2.53-2.41c-.19-.19-.39-.15-.45.07a.88.88,0,0,0,.26.75l1.84,1.76-1.48.28c-.3-.5-.74-.81-1.1-.74S417.73,139.09,418,139.87Zm13.1-3.08v-6.47l4.2,5.66Zm.36,1.06,4.21-.81v6.47Zm-.36.63,4.2,5.66-4.2.81Zm-.73-.43v6.48l-4.2-5.67ZM430,137l-4.21.81v-6.47Zm.36-.63-4.2-5.67,4.2-.8Z" style="fill:#fff"></path></g><g id="freepik--heat-icon--inject-4"><path d="M454.72,194.18l-29-16.72a10,10,0,0,0-9,0l-.52.31a9.93,9.93,0,0,0-4.5,7.78V219a10,10,0,0,0,4.5,7.79l28.95,16.71a10,10,0,0,0,9,0l.52-.3a10,10,0,0,0,4.49-7.79V202A9.92,9.92,0,0,0,454.72,194.18Z" style="fill:#25FFEB"></path><path d="M454.72,194.18l-29-16.72a10,10,0,0,0-9,0l-.52.31a9.93,9.93,0,0,0-4.5,7.78V219a10,10,0,0,0,4.5,7.79l28.95,16.71a10,10,0,0,0,9,0l.52-.3a10,10,0,0,0,4.49-7.79V202A9.92,9.92,0,0,0,454.72,194.18Z" style="fill:#fff;opacity:0.7000000000000001"></path><path d="M411.76,185.55c0-2.87,2-4,4.5-2.6l28.95,16.72a9.94,9.94,0,0,1,4.5,7.78v33.44c0,2.86-2,4-4.5,2.59l-28.95-16.71a10,10,0,0,1-4.5-7.79Z" style="fill:#25FFEB"></path><path d="M411.76,185.55c0-2.87,2-4,4.5-2.6l28.95,16.72a9.94,9.94,0,0,1,4.5,7.78v33.44c0,2.86-2,4-4.5,2.59l-28.95-16.71a10,10,0,0,1-4.5-7.79Z" style="fill:#fff;opacity:0.55"></path><path d="M459.21,235.39a10,10,0,0,1-4.49,7.79l-.52.3a10,10,0,0,1-8.22.36c2.12.8,3.73-.39,3.73-3V207.45a9.18,9.18,0,0,0-1.32-4.42l9.51-5.5a9.23,9.23,0,0,1,1.31,4.43Z" style="fill:#25FFEB"></path><path d="M459.21,235.39a10,10,0,0,1-4.49,7.79l-.52.3a10,10,0,0,1-8.22.36c2.12.8,3.73-.39,3.73-3V207.45a9.18,9.18,0,0,0-1.32-4.42l9.51-5.5a9.23,9.23,0,0,1,1.31,4.43Z" style="fill:#fff;opacity:0.4"></path><path d="M430.73,205.19c-3.32-1.92-6,.12-6,4.55s2.7,9.59,6,11.51,6-.12,6-4.55S434.06,207.11,430.73,205.19Zm0-2.27c.29.16.53,0,.53-.4v-7.17a1.27,1.27,0,0,0-.53-1c-.29-.16-.52,0-.52.4v7.17A1.27,1.27,0,0,0,430.73,202.92Zm5.84,6.59a.33.33,0,0,0,.37,0l3.8-2.88c.21-.15.21-.6,0-1s-.53-.58-.74-.43l-3.8,2.88c-.21.15-.21.6,0,1A1,1,0,0,0,436.57,209.51Zm7.8,10.88L439,217.28c-.29-.17-.53,0-.53.4a1.27,1.27,0,0,0,.53,1l5.38,3.11c.29.17.52,0,.52-.4A1.26,1.26,0,0,0,444.37,220.39Zm-7.43,3.7c-.2-.4-.54-.59-.74-.43s-.21.6,0,1l3.8,7.27a1,1,0,0,0,.37.41.32.32,0,0,0,.37,0c.21-.15.21-.59,0-1Zm-6.21-.57c-.29-.17-.52,0-.52.4v7.17a1.23,1.23,0,0,0,.52,1c.29.17.53,0,.53-.39v-7.18A1.27,1.27,0,0,0,430.73,223.52Zm-6.2-6.6-3.8,2.88c-.21.15-.21.59,0,1a.94.94,0,0,0,.37.41.32.32,0,0,0,.37,0l3.8-2.87c.21-.16.21-.6,0-1S424.73,216.77,424.53,216.92ZM423,208.76a1.27,1.27,0,0,0-.53-1l-5.38-3.1c-.29-.17-.52,0-.52.4a1.26,1.26,0,0,0,.52,1l5.38,3.1C422.77,209.32,423,209.14,423,208.76Zm1.52-6.41a1,1,0,0,0,.37.42.32.32,0,0,0,.37,0c.21-.15.21-.6,0-1l-3.8-7.27c-.21-.39-.54-.58-.74-.43s-.21.6,0,1Z" style="fill:#fff"></path></g></g></svg>